<mxfile host="65bd71144e">
    <diagram id="pIulscbyGsp8XY0JSauv" name="ERD">
        <mxGraphModel dx="2772" dy="1918" grid="1" gridSize="10" guides="1" tooltips="1" connect="1" arrows="1" fold="1" page="1" pageScale="1" pageWidth="850" pageHeight="1100" math="0" shadow="0">
            <root>
                <mxCell id="0"/>
                <mxCell id="1" parent="0"/>
                <mxCell id="11" style="edgeStyle=none;html=1;endArrow=none;endFill=0;" parent="1" source="2" target="10" edge="1">
                    <mxGeometry relative="1" as="geometry"/>
                </mxCell>
                <mxCell id="2hGCOKmZBprVFsuQ0IhF-178" style="edgeStyle=none;html=1;endArrow=none;endFill=0;" parent="1" source="2" target="2hGCOKmZBprVFsuQ0IhF-177" edge="1">
                    <mxGeometry relative="1" as="geometry"/>
                </mxCell>
                <mxCell id="174" style="edgeStyle=none;html=1;exitX=0.75;exitY=1;exitDx=0;exitDy=0;entryX=0.5;entryY=0;entryDx=0;entryDy=0;endArrow=none;endFill=0;" parent="1" source="2" target="173" edge="1">
                    <mxGeometry relative="1" as="geometry"/>
                </mxCell>
                <mxCell id="2" value="Admin" style="rounded=1;arcSize=10;whiteSpace=wrap;html=1;align=center;" parent="1" vertex="1">
                    <mxGeometry x="-80" y="30" width="100" height="40" as="geometry"/>
                </mxCell>
                <mxCell id="15" style="edgeStyle=none;html=1;entryX=0;entryY=0.5;entryDx=0;entryDy=0;endArrow=none;endFill=0;" parent="1" source="3" target="14" edge="1">
                    <mxGeometry relative="1" as="geometry"/>
                </mxCell>
                <mxCell id="3" value="merek" style="rounded=1;arcSize=10;whiteSpace=wrap;html=1;align=center;" parent="1" vertex="1">
                    <mxGeometry x="300" y="30" width="100" height="40" as="geometry"/>
                </mxCell>
                <mxCell id="vy5QdHYgTJ-Si_YqWw_0-112" style="edgeStyle=none;html=1;entryX=0;entryY=1;entryDx=0;entryDy=0;endArrow=none;endFill=0;exitX=0.75;exitY=0;exitDx=0;exitDy=0;" parent="1" source="5" target="vy5QdHYgTJ-Si_YqWw_0-111" edge="1">
                    <mxGeometry relative="1" as="geometry"/>
                </mxCell>
                <mxCell id="146" style="edgeStyle=none;html=1;endArrow=none;endFill=0;" parent="1" source="5" target="145" edge="1">
                    <mxGeometry relative="1" as="geometry"/>
                </mxCell>
                <mxCell id="190" style="edgeStyle=none;html=1;endArrow=none;endFill=0;" parent="1" source="5" target="185" edge="1">
                    <mxGeometry relative="1" as="geometry"/>
                </mxCell>
                <mxCell id="5" value="Barang" style="rounded=1;arcSize=10;whiteSpace=wrap;html=1;align=center;" parent="1" vertex="1">
                    <mxGeometry x="680" y="30" width="100" height="40" as="geometry"/>
                </mxCell>
                <mxCell id="7" value="Detail Transaksi" style="rounded=1;arcSize=10;whiteSpace=wrap;html=1;align=center;" parent="1" vertex="1">
                    <mxGeometry x="680" y="730" width="100" height="40" as="geometry"/>
                </mxCell>
                <mxCell id="29" style="edgeStyle=none;html=1;endArrow=none;endFill=0;entryX=0;entryY=0.5;entryDx=0;entryDy=0;" parent="1" source="8" target="28" edge="1">
                    <mxGeometry relative="1" as="geometry">
                        <mxPoint x="612.2641509433961" y="741.132075471698" as="targetPoint"/>
                    </mxGeometry>
                </mxCell>
                <mxCell id="96" style="edgeStyle=none;html=1;entryX=0.5;entryY=0;entryDx=0;entryDy=0;endArrow=none;endFill=0;" parent="1" source="8" target="94" edge="1">
                    <mxGeometry relative="1" as="geometry"/>
                </mxCell>
                <mxCell id="8" value="Transaksi" style="rounded=1;arcSize=10;whiteSpace=wrap;html=1;align=center;" parent="1" vertex="1">
                    <mxGeometry x="300" y="730" width="100" height="40" as="geometry"/>
                </mxCell>
                <mxCell id="22" style="edgeStyle=none;html=1;entryX=0;entryY=0.5;entryDx=0;entryDy=0;endArrow=none;endFill=0;" parent="1" source="9" target="17" edge="1">
                    <mxGeometry relative="1" as="geometry">
                        <mxPoint x="170" y="470" as="targetPoint"/>
                    </mxGeometry>
                </mxCell>
                <mxCell id="26" style="edgeStyle=none;html=1;endArrow=none;endFill=0;" parent="1" source="9" target="24" edge="1">
                    <mxGeometry relative="1" as="geometry"/>
                </mxCell>
                <mxCell id="9" value="Pelanggan" style="rounded=1;arcSize=10;whiteSpace=wrap;html=1;align=center;" parent="1" vertex="1">
                    <mxGeometry x="300" y="450" width="100" height="40" as="geometry"/>
                </mxCell>
                <mxCell id="12" style="edgeStyle=none;html=1;endArrow=none;endFill=0;" parent="1" source="10" target="3" edge="1">
                    <mxGeometry relative="1" as="geometry"/>
                </mxCell>
                <mxCell id="10" value="memasukan" style="shape=rhombus;perimeter=rhombusPerimeter;whiteSpace=wrap;html=1;align=center;" parent="1" vertex="1">
                    <mxGeometry x="100" y="20" width="120" height="60" as="geometry"/>
                </mxCell>
                <mxCell id="16" style="edgeStyle=none;html=1;endArrow=none;endFill=0;" parent="1" source="14" target="5" edge="1">
                    <mxGeometry relative="1" as="geometry"/>
                </mxCell>
                <mxCell id="14" value="memiliki" style="shape=rhombus;perimeter=rhombusPerimeter;whiteSpace=wrap;html=1;align=center;" parent="1" vertex="1">
                    <mxGeometry x="480" y="20" width="120" height="60" as="geometry"/>
                </mxCell>
                <mxCell id="19" style="edgeStyle=none;html=1;endArrow=none;endFill=0;" parent="1" source="17" target="7" edge="1">
                    <mxGeometry relative="1" as="geometry"/>
                </mxCell>
                <mxCell id="17" value="memilki" style="shape=rhombus;perimeter=rhombusPerimeter;whiteSpace=wrap;html=1;align=center;" parent="1" vertex="1">
                    <mxGeometry x="670" y="440" width="120" height="60" as="geometry"/>
                </mxCell>
                <mxCell id="27" style="edgeStyle=none;html=1;endArrow=none;endFill=0;exitX=0.5;exitY=1;exitDx=0;exitDy=0;" parent="1" source="24" target="8" edge="1">
                    <mxGeometry relative="1" as="geometry">
                        <mxPoint x="350" y="740" as="sourcePoint"/>
                    </mxGeometry>
                </mxCell>
                <mxCell id="24" value="melakukan" style="shape=rhombus;perimeter=rhombusPerimeter;whiteSpace=wrap;html=1;align=center;" parent="1" vertex="1">
                    <mxGeometry x="290" y="570" width="120" height="60" as="geometry"/>
                </mxCell>
                <mxCell id="30" style="edgeStyle=none;html=1;entryX=0;entryY=0.5;entryDx=0;entryDy=0;endArrow=none;endFill=0;" parent="1" source="28" target="7" edge="1">
                    <mxGeometry relative="1" as="geometry"/>
                </mxCell>
                <mxCell id="28" value="memiliki" style="shape=rhombus;perimeter=rhombusPerimeter;whiteSpace=wrap;html=1;align=center;" parent="1" vertex="1">
                    <mxGeometry x="470" y="720" width="120" height="60" as="geometry"/>
                </mxCell>
                <mxCell id="43" style="edgeStyle=none;html=1;entryX=0;entryY=0;entryDx=0;entryDy=0;endArrow=none;endFill=0;" parent="1" source="39" target="2" edge="1">
                    <mxGeometry relative="1" as="geometry"/>
                </mxCell>
                <mxCell id="39" value="&lt;u&gt;id_admin&lt;/u&gt;" style="ellipse;whiteSpace=wrap;html=1;align=center;" parent="1" vertex="1">
                    <mxGeometry x="-190" y="-70" width="100" height="40" as="geometry"/>
                </mxCell>
                <mxCell id="44" style="edgeStyle=none;html=1;entryX=1;entryY=0;entryDx=0;entryDy=0;endArrow=none;endFill=0;" parent="1" source="40" target="2" edge="1">
                    <mxGeometry relative="1" as="geometry"/>
                </mxCell>
                <mxCell id="40" value="nama" style="ellipse;whiteSpace=wrap;html=1;align=center;" parent="1" vertex="1">
                    <mxGeometry x="30" y="-70" width="100" height="40" as="geometry"/>
                </mxCell>
                <mxCell id="45" style="edgeStyle=none;html=1;entryX=1;entryY=1;entryDx=0;entryDy=0;endArrow=none;endFill=0;exitX=0.263;exitY=0.092;exitDx=0;exitDy=0;exitPerimeter=0;" parent="1" source="41" target="2" edge="1">
                    <mxGeometry relative="1" as="geometry">
                        <mxPoint x="63.78378378379284" y="121.08108108109172" as="sourcePoint"/>
                    </mxGeometry>
                </mxCell>
                <mxCell id="41" value="email" style="ellipse;whiteSpace=wrap;html=1;align=center;" parent="1" vertex="1">
                    <mxGeometry x="80" y="90" width="100" height="40" as="geometry"/>
                </mxCell>
                <mxCell id="46" style="edgeStyle=none;html=1;entryX=0;entryY=1;entryDx=0;entryDy=0;endArrow=none;endFill=0;exitX=0.5;exitY=0;exitDx=0;exitDy=0;" parent="1" source="42" target="2" edge="1">
                    <mxGeometry relative="1" as="geometry">
                        <mxPoint x="-123.78378378377647" y="121.08108108107263" as="sourcePoint"/>
                    </mxGeometry>
                </mxCell>
                <mxCell id="42" value="password" style="ellipse;whiteSpace=wrap;html=1;align=center;" parent="1" vertex="1">
                    <mxGeometry x="-200" y="110" width="100" height="40" as="geometry"/>
                </mxCell>
                <mxCell id="49" style="edgeStyle=none;html=1;endArrow=none;endFill=0;" parent="1" source="47" target="3" edge="1">
                    <mxGeometry relative="1" as="geometry"/>
                </mxCell>
                <mxCell id="47" value="&lt;u&gt;id_merek&lt;/u&gt;" style="ellipse;whiteSpace=wrap;html=1;align=center;" parent="1" vertex="1">
                    <mxGeometry x="300" y="-70" width="100" height="40" as="geometry"/>
                </mxCell>
                <mxCell id="50" style="edgeStyle=none;html=1;endArrow=none;endFill=0;" parent="1" source="48" target="3" edge="1">
                    <mxGeometry relative="1" as="geometry"/>
                </mxCell>
                <mxCell id="48" value="merek" style="ellipse;whiteSpace=wrap;html=1;align=center;" parent="1" vertex="1">
                    <mxGeometry x="300" y="110" width="100" height="40" as="geometry"/>
                </mxCell>
                <mxCell id="57" style="edgeStyle=none;html=1;entryX=0;entryY=0;entryDx=0;entryDy=0;endArrow=none;endFill=0;" parent="1" source="52" target="5" edge="1">
                    <mxGeometry relative="1" as="geometry"/>
                </mxCell>
                <mxCell id="52" value="&lt;u&gt;id_barang&lt;/u&gt;" style="ellipse;whiteSpace=wrap;html=1;align=center;" parent="1" vertex="1">
                    <mxGeometry x="540" y="-40" width="100" height="40" as="geometry"/>
                </mxCell>
                <mxCell id="58" style="edgeStyle=none;html=1;entryX=0.25;entryY=0;entryDx=0;entryDy=0;endArrow=none;endFill=0;" parent="1" source="53" target="5" edge="1">
                    <mxGeometry relative="1" as="geometry"/>
                </mxCell>
                <mxCell id="53" value="id_merek" style="ellipse;whiteSpace=wrap;html=1;align=center;" parent="1" vertex="1">
                    <mxGeometry x="580" y="-90" width="100" height="40" as="geometry"/>
                </mxCell>
                <mxCell id="59" style="edgeStyle=none;html=1;entryX=0.5;entryY=0;entryDx=0;entryDy=0;endArrow=none;endFill=0;" parent="1" source="54" target="5" edge="1">
                    <mxGeometry relative="1" as="geometry"/>
                </mxCell>
                <mxCell id="54" value="barang" style="ellipse;whiteSpace=wrap;html=1;align=center;" parent="1" vertex="1">
                    <mxGeometry x="680" y="-110" width="100" height="40" as="geometry"/>
                </mxCell>
                <mxCell id="60" style="edgeStyle=none;html=1;entryX=1;entryY=1;entryDx=0;entryDy=0;endArrow=none;endFill=0;" parent="1" source="55" target="5" edge="1">
                    <mxGeometry relative="1" as="geometry"/>
                </mxCell>
                <mxCell id="55" value="harga" style="ellipse;whiteSpace=wrap;html=1;align=center;" parent="1" vertex="1">
                    <mxGeometry x="810" y="90" width="100" height="40" as="geometry"/>
                </mxCell>
                <mxCell id="82" style="edgeStyle=none;html=1;entryX=0;entryY=0;entryDx=0;entryDy=0;endArrow=none;endFill=0;" parent="1" source="75" target="7" edge="1">
                    <mxGeometry relative="1" as="geometry"/>
                </mxCell>
                <mxCell id="75" value="&lt;u&gt;id_detail_transaksi&lt;/u&gt;" style="ellipse;whiteSpace=wrap;html=1;align=center;" parent="1" vertex="1">
                    <mxGeometry x="580" y="640" width="130" height="50" as="geometry"/>
                </mxCell>
                <mxCell id="81" style="edgeStyle=none;html=1;entryX=1;entryY=0;entryDx=0;entryDy=0;endArrow=none;endFill=0;" parent="1" source="76" target="7" edge="1">
                    <mxGeometry relative="1" as="geometry"/>
                </mxCell>
                <mxCell id="76" value="payment_id" style="ellipse;whiteSpace=wrap;html=1;align=center;" parent="1" vertex="1">
                    <mxGeometry x="770" y="650" width="100" height="40" as="geometry"/>
                </mxCell>
                <mxCell id="79" style="edgeStyle=none;html=1;entryX=1;entryY=1;entryDx=0;entryDy=0;endArrow=none;endFill=0;" parent="1" source="77" target="7" edge="1">
                    <mxGeometry relative="1" as="geometry"/>
                </mxCell>
                <mxCell id="77" value="jumlah" style="ellipse;whiteSpace=wrap;html=1;align=center;" parent="1" vertex="1">
                    <mxGeometry x="790" y="790" width="100" height="40" as="geometry"/>
                </mxCell>
                <mxCell id="80" style="edgeStyle=none;html=1;entryX=0;entryY=1;entryDx=0;entryDy=0;endArrow=none;endFill=0;" parent="1" source="78" target="7" edge="1">
                    <mxGeometry relative="1" as="geometry"/>
                </mxCell>
                <mxCell id="78" value="id_detail_barang" style="ellipse;whiteSpace=wrap;html=1;align=center;" parent="1" vertex="1">
                    <mxGeometry x="595" y="790" width="100" height="40" as="geometry"/>
                </mxCell>
                <mxCell id="89" style="edgeStyle=none;html=1;entryX=0;entryY=0;entryDx=0;entryDy=0;endArrow=none;endFill=0;" parent="1" source="83" target="8" edge="1">
                    <mxGeometry relative="1" as="geometry"/>
                </mxCell>
                <mxCell id="83" value="&lt;u&gt;id_transaksi&lt;/u&gt;" style="ellipse;whiteSpace=wrap;html=1;align=center;" parent="1" vertex="1">
                    <mxGeometry x="140" y="660" width="130" height="50" as="geometry"/>
                </mxCell>
                <mxCell id="93" style="edgeStyle=none;html=1;entryX=1;entryY=0;entryDx=0;entryDy=0;endArrow=none;endFill=0;" parent="1" source="84" target="8" edge="1">
                    <mxGeometry relative="1" as="geometry"/>
                </mxCell>
                <mxCell id="84" value="id_pelanggan" style="ellipse;whiteSpace=wrap;html=1;align=center;" parent="1" vertex="1">
                    <mxGeometry x="440" y="670" width="100" height="40" as="geometry"/>
                </mxCell>
                <mxCell id="92" style="edgeStyle=none;html=1;entryX=1;entryY=1;entryDx=0;entryDy=0;endArrow=none;endFill=0;" parent="1" source="86" target="8" edge="1">
                    <mxGeometry relative="1" as="geometry"/>
                </mxCell>
                <mxCell id="86" value="alamat" style="ellipse;whiteSpace=wrap;html=1;align=center;" parent="1" vertex="1">
                    <mxGeometry x="450" y="800" width="100" height="40" as="geometry"/>
                </mxCell>
                <mxCell id="91" style="edgeStyle=none;html=1;entryX=0;entryY=1;entryDx=0;entryDy=0;endArrow=none;endFill=0;" parent="1" source="87" target="8" edge="1">
                    <mxGeometry relative="1" as="geometry"/>
                </mxCell>
                <mxCell id="87" value="biaya" style="ellipse;whiteSpace=wrap;html=1;align=center;" parent="1" vertex="1">
                    <mxGeometry x="230" y="825" width="100" height="40" as="geometry"/>
                </mxCell>
                <mxCell id="90" style="edgeStyle=none;html=1;endArrow=none;endFill=0;" parent="1" source="88" target="8" edge="1">
                    <mxGeometry relative="1" as="geometry"/>
                </mxCell>
                <mxCell id="88" value="tanggal_pesan" style="ellipse;whiteSpace=wrap;html=1;align=center;" parent="1" vertex="1">
                    <mxGeometry x="150" y="730" width="100" height="40" as="geometry"/>
                </mxCell>
                <mxCell id="97" style="edgeStyle=none;html=1;entryX=0.5;entryY=0;entryDx=0;entryDy=0;endArrow=none;endFill=0;" parent="1" source="94" target="95" edge="1">
                    <mxGeometry relative="1" as="geometry"/>
                </mxCell>
                <mxCell id="94" value="memiliki" style="shape=rhombus;perimeter=rhombusPerimeter;whiteSpace=wrap;html=1;align=center;" parent="1" vertex="1">
                    <mxGeometry x="290" y="930" width="120" height="60" as="geometry"/>
                </mxCell>
                <mxCell id="102" style="edgeStyle=none;html=1;endArrow=none;endFill=0;" parent="1" source="95" target="98" edge="1">
                    <mxGeometry relative="1" as="geometry"/>
                </mxCell>
                <mxCell id="103" style="edgeStyle=none;html=1;endArrow=none;endFill=0;" parent="1" source="95" target="101" edge="1">
                    <mxGeometry relative="1" as="geometry"/>
                </mxCell>
                <mxCell id="95" value="status transaksi" style="rounded=1;arcSize=10;whiteSpace=wrap;html=1;align=center;" parent="1" vertex="1">
                    <mxGeometry x="300" y="1100" width="100" height="40" as="geometry"/>
                </mxCell>
                <mxCell id="98" value="&lt;u&gt;id_status_pengiriman&lt;/u&gt;" style="ellipse;whiteSpace=wrap;html=1;align=center;" parent="1" vertex="1">
                    <mxGeometry x="430" y="1090" width="140" height="60" as="geometry"/>
                </mxCell>
                <mxCell id="104" style="edgeStyle=none;html=1;entryX=0;entryY=0.5;entryDx=0;entryDy=0;endArrow=none;endFill=0;" parent="1" source="99" target="100" edge="1">
                    <mxGeometry relative="1" as="geometry"/>
                </mxCell>
                <mxCell id="99" value="kategori transaksi" style="rounded=1;arcSize=10;whiteSpace=wrap;html=1;align=center;" parent="1" vertex="1">
                    <mxGeometry x="-40" y="1100" width="100" height="40" as="geometry"/>
                </mxCell>
                <mxCell id="105" style="edgeStyle=none;html=1;endArrow=none;endFill=0;" parent="1" source="100" target="95" edge="1">
                    <mxGeometry relative="1" as="geometry"/>
                </mxCell>
                <mxCell id="100" value="memiliki" style="shape=rhombus;perimeter=rhombusPerimeter;whiteSpace=wrap;html=1;align=center;" parent="1" vertex="1">
                    <mxGeometry x="110" y="1090" width="120" height="60" as="geometry"/>
                </mxCell>
                <mxCell id="101" value="id_kategori_transaksi" style="ellipse;whiteSpace=wrap;html=1;align=center;" parent="1" vertex="1">
                    <mxGeometry x="270" y="1210" width="160" height="60" as="geometry"/>
                </mxCell>
                <mxCell id="109" style="edgeStyle=none;html=1;entryX=0.5;entryY=0;entryDx=0;entryDy=0;endArrow=none;endFill=0;exitX=0.5;exitY=1;exitDx=0;exitDy=0;" parent="1" source="106" target="99" edge="1">
                    <mxGeometry relative="1" as="geometry">
                        <mxPoint x="10" y="1050" as="sourcePoint"/>
                    </mxGeometry>
                </mxCell>
                <mxCell id="106" value="&lt;u&gt;id_kategori_transaksi&lt;/u&gt;" style="ellipse;whiteSpace=wrap;html=1;align=center;" parent="1" vertex="1">
                    <mxGeometry x="-60" y="1010" width="140" height="60" as="geometry"/>
                </mxCell>
                <mxCell id="111" style="edgeStyle=none;html=1;endArrow=none;endFill=0;" parent="1" source="107" target="99" edge="1">
                    <mxGeometry relative="1" as="geometry"/>
                </mxCell>
                <mxCell id="107" value="kategori_transaksi" style="ellipse;whiteSpace=wrap;html=1;align=center;" parent="1" vertex="1">
                    <mxGeometry x="-70" y="1180" width="160" height="60" as="geometry"/>
                </mxCell>
                <mxCell id="bS3iyLQEl-5TWFYZDoMw-118" style="edgeStyle=none;html=1;entryX=0;entryY=0;entryDx=0;entryDy=0;endArrow=none;endFill=0;" parent="1" source="bS3iyLQEl-5TWFYZDoMw-111" target="9" edge="1">
                    <mxGeometry relative="1" as="geometry"/>
                </mxCell>
                <mxCell id="bS3iyLQEl-5TWFYZDoMw-111" value="&lt;u&gt;id_pelanggan&lt;/u&gt;" style="ellipse;whiteSpace=wrap;html=1;align=center;" parent="1" vertex="1">
                    <mxGeometry x="135" y="375" width="130" height="50" as="geometry"/>
                </mxCell>
                <mxCell id="bS3iyLQEl-5TWFYZDoMw-117" style="edgeStyle=none;html=1;endArrow=none;endFill=0;" parent="1" source="bS3iyLQEl-5TWFYZDoMw-112" target="9" edge="1">
                    <mxGeometry relative="1" as="geometry"/>
                </mxCell>
                <mxCell id="bS3iyLQEl-5TWFYZDoMw-112" value="nama" style="ellipse;whiteSpace=wrap;html=1;align=center;" parent="1" vertex="1">
                    <mxGeometry x="135" y="450" width="130" height="50" as="geometry"/>
                </mxCell>
                <mxCell id="bS3iyLQEl-5TWFYZDoMw-122" style="edgeStyle=none;html=1;entryX=0;entryY=1;entryDx=0;entryDy=0;endArrow=none;endFill=0;" parent="1" source="bS3iyLQEl-5TWFYZDoMw-113" target="9" edge="1">
                    <mxGeometry relative="1" as="geometry"/>
                </mxCell>
                <mxCell id="bS3iyLQEl-5TWFYZDoMw-113" value="email" style="ellipse;whiteSpace=wrap;html=1;align=center;" parent="1" vertex="1">
                    <mxGeometry x="135" y="530" width="130" height="50" as="geometry"/>
                </mxCell>
                <mxCell id="bS3iyLQEl-5TWFYZDoMw-121" style="edgeStyle=none;html=1;entryX=0.75;entryY=1;entryDx=0;entryDy=0;endArrow=none;endFill=0;" parent="1" source="bS3iyLQEl-5TWFYZDoMw-114" target="9" edge="1">
                    <mxGeometry relative="1" as="geometry"/>
                </mxCell>
                <mxCell id="bS3iyLQEl-5TWFYZDoMw-114" value="password" style="ellipse;whiteSpace=wrap;html=1;align=center;" parent="1" vertex="1">
                    <mxGeometry x="360" y="530" width="130" height="50" as="geometry"/>
                </mxCell>
                <mxCell id="bS3iyLQEl-5TWFYZDoMw-120" style="edgeStyle=none;html=1;entryX=1;entryY=0;entryDx=0;entryDy=0;endArrow=none;endFill=0;" parent="1" source="bS3iyLQEl-5TWFYZDoMw-115" target="9" edge="1">
                    <mxGeometry relative="1" as="geometry"/>
                </mxCell>
                <mxCell id="bS3iyLQEl-5TWFYZDoMw-115" value="telpon" style="ellipse;whiteSpace=wrap;html=1;align=center;" parent="1" vertex="1">
                    <mxGeometry x="435" y="375" width="130" height="50" as="geometry"/>
                </mxCell>
                <mxCell id="bS3iyLQEl-5TWFYZDoMw-119" style="edgeStyle=none;html=1;endArrow=none;endFill=0;" parent="1" source="bS3iyLQEl-5TWFYZDoMw-116" target="9" edge="1">
                    <mxGeometry relative="1" as="geometry"/>
                </mxCell>
                <mxCell id="bS3iyLQEl-5TWFYZDoMw-116" value="alamat" style="ellipse;whiteSpace=wrap;html=1;align=center;" parent="1" vertex="1">
                    <mxGeometry x="285" y="370" width="130" height="50" as="geometry"/>
                </mxCell>
                <mxCell id="vy5QdHYgTJ-Si_YqWw_0-111" value="gambar" style="ellipse;whiteSpace=wrap;html=1;align=center;" parent="1" vertex="1">
                    <mxGeometry x="780" y="-80" width="100" height="40" as="geometry"/>
                </mxCell>
                <mxCell id="vy5QdHYgTJ-Si_YqWw_0-116" style="edgeStyle=none;html=1;exitX=1;exitY=0;exitDx=0;exitDy=0;entryX=0;entryY=0.75;entryDx=0;entryDy=0;endArrow=none;endFill=0;" parent="1" source="vy5QdHYgTJ-Si_YqWw_0-115" target="8" edge="1">
                    <mxGeometry relative="1" as="geometry"/>
                </mxCell>
                <mxCell id="vy5QdHYgTJ-Si_YqWw_0-115" value="payment_id" style="ellipse;whiteSpace=wrap;html=1;align=center;" parent="1" vertex="1">
                    <mxGeometry x="130" y="800" width="100" height="40" as="geometry"/>
                </mxCell>
                <mxCell id="vy5QdHYgTJ-Si_YqWw_0-122" style="edgeStyle=none;html=1;exitX=0;exitY=1;exitDx=0;exitDy=0;entryX=0.75;entryY=0;entryDx=0;entryDy=0;endArrow=none;endFill=0;" parent="1" source="vy5QdHYgTJ-Si_YqWw_0-121" target="8" edge="1">
                    <mxGeometry relative="1" as="geometry"/>
                </mxCell>
                <mxCell id="vy5QdHYgTJ-Si_YqWw_0-121" value="keterangan" style="ellipse;whiteSpace=wrap;html=1;align=center;" parent="1" vertex="1">
                    <mxGeometry x="370" y="630" width="100" height="40" as="geometry"/>
                </mxCell>
                <mxCell id="vy5QdHYgTJ-Si_YqWw_0-124" style="edgeStyle=none;html=1;exitX=0.5;exitY=1;exitDx=0;exitDy=0;entryX=0.25;entryY=0;entryDx=0;entryDy=0;endArrow=none;endFill=0;" parent="1" source="vy5QdHYgTJ-Si_YqWw_0-123" target="95" edge="1">
                    <mxGeometry relative="1" as="geometry">
                        <mxPoint x="309.4974746830585" y="1071.2132034355964" as="sourcePoint"/>
                    </mxGeometry>
                </mxCell>
                <mxCell id="vy5QdHYgTJ-Si_YqWw_0-123" value="id_transaksi" style="ellipse;whiteSpace=wrap;html=1;align=center;" parent="1" vertex="1">
                    <mxGeometry x="180" y="1000" width="140" height="60" as="geometry"/>
                </mxCell>
                <mxCell id="113" value="" style="edgeStyle=none;html=1;endArrow=none;endFill=0;entryX=1;entryY=0.5;entryDx=0;entryDy=0;" parent="1" source="115" target="126" edge="1">
                    <mxGeometry relative="1" as="geometry">
                        <mxPoint x="1040" y="730" as="targetPoint"/>
                    </mxGeometry>
                </mxCell>
                <mxCell id="114" style="edgeStyle=none;html=1;endArrow=none;endFill=0;exitX=0.5;exitY=0;exitDx=0;exitDy=0;" parent="1" source="115" target="125" edge="1">
                    <mxGeometry relative="1" as="geometry"/>
                </mxCell>
                <mxCell id="2hGCOKmZBprVFsuQ0IhF-167" style="edgeStyle=none;html=1;entryX=0;entryY=0.5;entryDx=0;entryDy=0;endArrow=none;endFill=0;" parent="1" source="115" target="2hGCOKmZBprVFsuQ0IhF-166" edge="1">
                    <mxGeometry relative="1" as="geometry"/>
                </mxCell>
                <mxCell id="182" style="edgeStyle=none;html=1;endArrow=none;endFill=0;" parent="1" source="115" target="181" edge="1">
                    <mxGeometry relative="1" as="geometry"/>
                </mxCell>
                <mxCell id="115" value="Komentar" style="rounded=1;arcSize=10;whiteSpace=wrap;html=1;align=center;" parent="1" vertex="1">
                    <mxGeometry x="1060" y="730" width="100" height="40" as="geometry"/>
                </mxCell>
                <mxCell id="117" style="edgeStyle=none;html=1;entryX=0;entryY=0;entryDx=0;entryDy=0;endArrow=none;endFill=0;" parent="1" source="118" target="115" edge="1">
                    <mxGeometry relative="1" as="geometry"/>
                </mxCell>
                <mxCell id="118" value="&lt;u&gt;id_komentar&lt;/u&gt;" style="ellipse;whiteSpace=wrap;html=1;align=center;" parent="1" vertex="1">
                    <mxGeometry x="980" y="680" width="100" height="40" as="geometry"/>
                </mxCell>
                <mxCell id="119" style="edgeStyle=none;html=1;entryX=1;entryY=0;entryDx=0;entryDy=0;endArrow=none;endFill=0;" parent="1" source="120" target="115" edge="1">
                    <mxGeometry relative="1" as="geometry"/>
                </mxCell>
                <mxCell id="120" value="id_detail_transaksi" style="ellipse;whiteSpace=wrap;html=1;align=center;" parent="1" vertex="1">
                    <mxGeometry x="1155" y="665" width="110" height="40" as="geometry"/>
                </mxCell>
                <mxCell id="121" style="edgeStyle=none;html=1;entryX=0;entryY=1;entryDx=0;entryDy=0;endArrow=none;endFill=0;" parent="1" source="122" target="115" edge="1">
                    <mxGeometry relative="1" as="geometry"/>
                </mxCell>
                <mxCell id="122" value="id_pelanggan" style="ellipse;whiteSpace=wrap;html=1;align=center;" parent="1" vertex="1">
                    <mxGeometry x="980" y="790" width="100" height="40" as="geometry"/>
                </mxCell>
                <mxCell id="123" style="edgeStyle=none;html=1;entryX=1;entryY=1;entryDx=0;entryDy=0;endArrow=none;endFill=0;" parent="1" source="124" target="115" edge="1">
                    <mxGeometry relative="1" as="geometry"/>
                </mxCell>
                <mxCell id="124" value="komentar" style="ellipse;whiteSpace=wrap;html=1;align=center;" parent="1" vertex="1">
                    <mxGeometry x="1160" y="790" width="100" height="40" as="geometry"/>
                </mxCell>
                <mxCell id="125" value="rate" style="ellipse;whiteSpace=wrap;html=1;align=center;" parent="1" vertex="1">
                    <mxGeometry x="1055" y="640" width="100" height="40" as="geometry"/>
                </mxCell>
                <mxCell id="127" style="edgeStyle=none;html=1;exitX=0;exitY=0.5;exitDx=0;exitDy=0;entryX=1;entryY=0.5;entryDx=0;entryDy=0;endArrow=none;endFill=0;" parent="1" source="126" target="7" edge="1">
                    <mxGeometry relative="1" as="geometry"/>
                </mxCell>
                <mxCell id="126" value="memiliki" style="shape=rhombus;perimeter=rhombusPerimeter;whiteSpace=wrap;html=1;align=center;" parent="1" vertex="1">
                    <mxGeometry x="860" y="720" width="120" height="60" as="geometry"/>
                </mxCell>
                <mxCell id="128" value="Keranjang" style="rounded=1;arcSize=10;whiteSpace=wrap;html=1;align=center;" parent="1" vertex="1">
                    <mxGeometry x="880" y="450" width="100" height="40" as="geometry"/>
                </mxCell>
                <mxCell id="129" style="edgeStyle=none;html=1;entryX=0;entryY=0.5;entryDx=0;entryDy=0;endArrow=none;endFill=0;" parent="1" target="128" edge="1">
                    <mxGeometry relative="1" as="geometry">
                        <mxPoint x="790" y="470" as="sourcePoint"/>
                    </mxGeometry>
                </mxCell>
                <mxCell id="132" style="edgeStyle=none;html=1;entryX=1;entryY=0;entryDx=0;entryDy=0;endArrow=none;endFill=0;" parent="1" source="133" target="128" edge="1">
                    <mxGeometry relative="1" as="geometry"/>
                </mxCell>
                <mxCell id="133" value="id_pelanggan" style="ellipse;whiteSpace=wrap;html=1;align=center;" parent="1" vertex="1">
                    <mxGeometry x="960" y="385" width="100" height="40" as="geometry"/>
                </mxCell>
                <mxCell id="134" style="edgeStyle=none;html=1;entryX=1;entryY=1;entryDx=0;entryDy=0;endArrow=none;endFill=0;" parent="1" source="135" target="128" edge="1">
                    <mxGeometry relative="1" as="geometry"/>
                </mxCell>
                <mxCell id="135" value="jumlah" style="ellipse;whiteSpace=wrap;html=1;align=center;" parent="1" vertex="1">
                    <mxGeometry x="970" y="510" width="100" height="40" as="geometry"/>
                </mxCell>
                <mxCell id="136" style="edgeStyle=none;html=1;entryX=0;entryY=0;entryDx=0;entryDy=0;endArrow=none;endFill=0;" parent="1" source="137" target="128" edge="1">
                    <mxGeometry relative="1" as="geometry"/>
                </mxCell>
                <mxCell id="137" value="id_detail_barang" style="ellipse;whiteSpace=wrap;html=1;align=center;" parent="1" vertex="1">
                    <mxGeometry x="810" y="385" width="100" height="40" as="geometry"/>
                </mxCell>
                <mxCell id="139" style="edgeStyle=none;html=1;entryX=0;entryY=1;entryDx=0;entryDy=0;endArrow=none;endFill=0;" parent="1" source="140" target="5" edge="1">
                    <mxGeometry relative="1" as="geometry">
                        <mxPoint x="700" y="130" as="targetPoint"/>
                    </mxGeometry>
                </mxCell>
                <mxCell id="140" value="keterangan" style="ellipse;whiteSpace=wrap;html=1;align=center;" parent="1" vertex="1">
                    <mxGeometry x="580" y="90" width="100" height="40" as="geometry"/>
                </mxCell>
                <mxCell id="149" style="edgeStyle=none;html=1;endArrow=none;endFill=0;" parent="1" source="144" target="148" edge="1">
                    <mxGeometry relative="1" as="geometry"/>
                </mxCell>
                <mxCell id="151" style="edgeStyle=none;html=1;endArrow=none;endFill=0;" parent="1" source="144" target="150" edge="1">
                    <mxGeometry relative="1" as="geometry"/>
                </mxCell>
                <mxCell id="144" value="Promo" style="rounded=1;arcSize=10;whiteSpace=wrap;html=1;align=center;" parent="1" vertex="1">
                    <mxGeometry x="1110" y="30" width="100" height="40" as="geometry"/>
                </mxCell>
                <mxCell id="147" style="edgeStyle=none;html=1;endArrow=none;endFill=0;" parent="1" source="145" target="144" edge="1">
                    <mxGeometry relative="1" as="geometry"/>
                </mxCell>
                <mxCell id="145" value="memiliki" style="shape=rhombus;perimeter=rhombusPerimeter;whiteSpace=wrap;html=1;align=center;" parent="1" vertex="1">
                    <mxGeometry x="890" y="20" width="120" height="60" as="geometry"/>
                </mxCell>
                <mxCell id="148" value="diskon" style="ellipse;whiteSpace=wrap;html=1;align=center;" parent="1" vertex="1">
                    <mxGeometry x="1000" y="90" width="100" height="40" as="geometry"/>
                </mxCell>
                <mxCell id="150" value="keterangan" style="ellipse;whiteSpace=wrap;html=1;align=center;" parent="1" vertex="1">
                    <mxGeometry x="1265" y="30" width="100" height="40" as="geometry"/>
                </mxCell>
                <mxCell id="153" style="edgeStyle=none;html=1;entryX=0.25;entryY=0;entryDx=0;entryDy=0;endArrow=none;endFill=0;" parent="1" source="152" target="144" edge="1">
                    <mxGeometry relative="1" as="geometry"/>
                </mxCell>
                <mxCell id="152" value="&lt;u&gt;id_promo&lt;/u&gt;" style="ellipse;whiteSpace=wrap;html=1;align=center;" parent="1" vertex="1">
                    <mxGeometry x="1020" y="-40" width="100" height="40" as="geometry"/>
                </mxCell>
                <mxCell id="155" style="edgeStyle=none;html=1;exitX=0.5;exitY=0;exitDx=0;exitDy=0;entryX=0.25;entryY=1;entryDx=0;entryDy=0;endArrow=none;endFill=0;" parent="1" source="154" target="144" edge="1">
                    <mxGeometry relative="1" as="geometry"/>
                </mxCell>
                <mxCell id="154" value="code" style="ellipse;whiteSpace=wrap;html=1;align=center;" parent="1" vertex="1">
                    <mxGeometry x="1055" y="150" width="100" height="40" as="geometry"/>
                </mxCell>
                <mxCell id="158" style="edgeStyle=none;html=1;entryX=0.5;entryY=0;entryDx=0;entryDy=0;endArrow=none;endFill=0;" parent="1" source="157" target="144" edge="1">
                    <mxGeometry relative="1" as="geometry"/>
                </mxCell>
                <mxCell id="157" value="id_barang" style="ellipse;whiteSpace=wrap;html=1;align=center;" parent="1" vertex="1">
                    <mxGeometry x="1110" y="-80" width="100" height="40" as="geometry"/>
                </mxCell>
                <mxCell id="161" style="edgeStyle=none;html=1;exitX=0.5;exitY=0;exitDx=0;exitDy=0;entryX=0.5;entryY=1;entryDx=0;entryDy=0;endArrow=none;endFill=0;" parent="1" source="159" target="144" edge="1">
                    <mxGeometry relative="1" as="geometry"/>
                </mxCell>
                <mxCell id="159" value="title" style="ellipse;whiteSpace=wrap;html=1;align=center;" parent="1" vertex="1">
                    <mxGeometry x="1110" y="230" width="100" height="40" as="geometry"/>
                </mxCell>
                <mxCell id="163" style="edgeStyle=none;html=1;exitX=0;exitY=1;exitDx=0;exitDy=0;entryX=0.75;entryY=0;entryDx=0;entryDy=0;endArrow=none;endFill=0;" parent="1" source="162" target="144" edge="1">
                    <mxGeometry relative="1" as="geometry"/>
                </mxCell>
                <mxCell id="162" value="date_to" style="ellipse;whiteSpace=wrap;html=1;align=center;" parent="1" vertex="1">
                    <mxGeometry x="1210" y="-40" width="100" height="40" as="geometry"/>
                </mxCell>
                <mxCell id="166" style="edgeStyle=none;html=1;entryX=0.681;entryY=1.074;entryDx=0;entryDy=0;entryPerimeter=0;endArrow=none;endFill=0;" parent="1" source="165" target="144" edge="1">
                    <mxGeometry relative="1" as="geometry"/>
                </mxCell>
                <mxCell id="165" value="date_from" style="ellipse;whiteSpace=wrap;html=1;align=center;" parent="1" vertex="1">
                    <mxGeometry x="1190" y="150" width="100" height="40" as="geometry"/>
                </mxCell>
                <mxCell id="2hGCOKmZBprVFsuQ0IhF-169" style="edgeStyle=none;html=1;endArrow=none;endFill=0;" parent="1" source="2hGCOKmZBprVFsuQ0IhF-166" target="2hGCOKmZBprVFsuQ0IhF-168" edge="1">
                    <mxGeometry relative="1" as="geometry"/>
                </mxCell>
                <mxCell id="2hGCOKmZBprVFsuQ0IhF-166" value="memiliki" style="shape=rhombus;perimeter=rhombusPerimeter;whiteSpace=wrap;html=1;align=center;" parent="1" vertex="1">
                    <mxGeometry x="1300" y="720" width="120" height="60" as="geometry"/>
                </mxCell>
                <mxCell id="2hGCOKmZBprVFsuQ0IhF-176" style="edgeStyle=none;html=1;exitX=0.5;exitY=1;exitDx=0;exitDy=0;entryX=0.5;entryY=0;entryDx=0;entryDy=0;endArrow=none;endFill=0;" parent="1" source="2hGCOKmZBprVFsuQ0IhF-168" target="2hGCOKmZBprVFsuQ0IhF-175" edge="1">
                    <mxGeometry relative="1" as="geometry"/>
                </mxCell>
                <mxCell id="2hGCOKmZBprVFsuQ0IhF-168" value="Balasan" style="rounded=1;arcSize=10;whiteSpace=wrap;html=1;align=center;" parent="1" vertex="1">
                    <mxGeometry x="1530" y="730" width="100" height="40" as="geometry"/>
                </mxCell>
                <mxCell id="2hGCOKmZBprVFsuQ0IhF-174" style="edgeStyle=none;html=1;exitX=0.5;exitY=1;exitDx=0;exitDy=0;entryX=0.75;entryY=0;entryDx=0;entryDy=0;endArrow=none;endFill=0;" parent="1" source="2hGCOKmZBprVFsuQ0IhF-171" target="2hGCOKmZBprVFsuQ0IhF-168" edge="1">
                    <mxGeometry relative="1" as="geometry"/>
                </mxCell>
                <mxCell id="2hGCOKmZBprVFsuQ0IhF-171" value="id_komentar" style="ellipse;whiteSpace=wrap;html=1;align=center;" parent="1" vertex="1">
                    <mxGeometry x="1600" y="660" width="110" height="40" as="geometry"/>
                </mxCell>
                <mxCell id="2hGCOKmZBprVFsuQ0IhF-173" style="edgeStyle=none;html=1;exitX=0.5;exitY=1;exitDx=0;exitDy=0;entryX=0.25;entryY=0;entryDx=0;entryDy=0;endArrow=none;endFill=0;" parent="1" source="2hGCOKmZBprVFsuQ0IhF-172" target="2hGCOKmZBprVFsuQ0IhF-168" edge="1">
                    <mxGeometry relative="1" as="geometry"/>
                </mxCell>
                <mxCell id="2hGCOKmZBprVFsuQ0IhF-172" value="&lt;u&gt;id_balasan&lt;/u&gt;" style="ellipse;whiteSpace=wrap;html=1;align=center;" parent="1" vertex="1">
                    <mxGeometry x="1440" y="660" width="100" height="40" as="geometry"/>
                </mxCell>
                <mxCell id="2hGCOKmZBprVFsuQ0IhF-175" value="balasan" style="ellipse;whiteSpace=wrap;html=1;align=center;" parent="1" vertex="1">
                    <mxGeometry x="1525" y="820" width="110" height="40" as="geometry"/>
                </mxCell>
                <mxCell id="2hGCOKmZBprVFsuQ0IhF-182" style="edgeStyle=none;html=1;endArrow=none;endFill=0;" parent="1" source="2hGCOKmZBprVFsuQ0IhF-177" target="2hGCOKmZBprVFsuQ0IhF-181" edge="1">
                    <mxGeometry relative="1" as="geometry"/>
                </mxCell>
                <mxCell id="2hGCOKmZBprVFsuQ0IhF-177" value="thumbnile" style="rounded=1;arcSize=10;whiteSpace=wrap;html=1;align=center;" parent="1" vertex="1">
                    <mxGeometry x="-80" y="210" width="100" height="40" as="geometry"/>
                </mxCell>
                <mxCell id="2hGCOKmZBprVFsuQ0IhF-180" style="edgeStyle=none;html=1;endArrow=none;endFill=0;" parent="1" source="2hGCOKmZBprVFsuQ0IhF-179" target="2hGCOKmZBprVFsuQ0IhF-177" edge="1">
                    <mxGeometry relative="1" as="geometry"/>
                </mxCell>
                <mxCell id="2hGCOKmZBprVFsuQ0IhF-179" value="&lt;u&gt;id_admin&lt;/u&gt;" style="ellipse;whiteSpace=wrap;html=1;align=center;" parent="1" vertex="1">
                    <mxGeometry x="-200" y="210" width="100" height="40" as="geometry"/>
                </mxCell>
                <mxCell id="2hGCOKmZBprVFsuQ0IhF-181" value="image" style="ellipse;whiteSpace=wrap;html=1;align=center;" parent="1" vertex="1">
                    <mxGeometry x="-80" y="270" width="100" height="40" as="geometry"/>
                </mxCell>
                <mxCell id="168" style="edgeStyle=none;html=1;endArrow=none;endFill=0;" parent="1" source="167" target="2" edge="1">
                    <mxGeometry relative="1" as="geometry"/>
                </mxCell>
                <mxCell id="167" value="is_active" style="ellipse;whiteSpace=wrap;html=1;align=center;" parent="1" vertex="1">
                    <mxGeometry x="-80" y="-70" width="100" height="40" as="geometry"/>
                </mxCell>
                <mxCell id="172" style="edgeStyle=none;html=1;endArrow=none;endFill=0;" parent="1" source="171" target="2" edge="1">
                    <mxGeometry relative="1" as="geometry"/>
                </mxCell>
                <mxCell id="171" value="is_owner" style="ellipse;whiteSpace=wrap;html=1;align=center;" parent="1" vertex="1">
                    <mxGeometry x="-210" y="30" width="100" height="40" as="geometry"/>
                </mxCell>
                <mxCell id="173" value="forgot_password" style="ellipse;whiteSpace=wrap;html=1;align=center;" parent="1" vertex="1">
                    <mxGeometry x="-20" y="130" width="100" height="40" as="geometry"/>
                </mxCell>
                <mxCell id="176" style="edgeStyle=none;html=1;exitX=0;exitY=0;exitDx=0;exitDy=0;entryX=1;entryY=1;entryDx=0;entryDy=0;endArrow=none;endFill=0;" parent="1" source="175" target="9" edge="1">
                    <mxGeometry relative="1" as="geometry"/>
                </mxCell>
                <mxCell id="175" value="forgot_password" style="ellipse;whiteSpace=wrap;html=1;align=center;" parent="1" vertex="1">
                    <mxGeometry x="450" y="490" width="130" height="50" as="geometry"/>
                </mxCell>
                <mxCell id="178" style="edgeStyle=none;html=1;exitX=1;exitY=1;exitDx=0;exitDy=0;entryX=0;entryY=0;entryDx=0;entryDy=0;endArrow=none;endFill=0;" parent="1" source="177" target="3" edge="1">
                    <mxGeometry relative="1" as="geometry"/>
                </mxCell>
                <mxCell id="177" value="&lt;u&gt;id_admin&lt;/u&gt;" style="ellipse;whiteSpace=wrap;html=1;align=center;" parent="1" vertex="1">
                    <mxGeometry x="190" y="-30" width="100" height="40" as="geometry"/>
                </mxCell>
                <mxCell id="181" value="status" style="ellipse;whiteSpace=wrap;html=1;align=center;" parent="1" vertex="1">
                    <mxGeometry x="1060" y="830" width="100" height="40" as="geometry"/>
                </mxCell>
                <mxCell id="192" style="edgeStyle=none;html=1;endArrow=none;endFill=0;" parent="1" source="183" target="17" edge="1">
                    <mxGeometry relative="1" as="geometry"/>
                </mxCell>
                <mxCell id="183" value="detail_barang" style="rounded=1;arcSize=10;whiteSpace=wrap;html=1;align=center;" parent="1" vertex="1">
                    <mxGeometry x="680" y="310" width="100" height="40" as="geometry"/>
                </mxCell>
                <mxCell id="191" style="edgeStyle=none;html=1;endArrow=none;endFill=0;" parent="1" source="185" target="183" edge="1">
                    <mxGeometry relative="1" as="geometry"/>
                </mxCell>
                <mxCell id="185" value="memiliki" style="shape=rhombus;perimeter=rhombusPerimeter;whiteSpace=wrap;html=1;align=center;" parent="1" vertex="1">
                    <mxGeometry x="670" y="200" width="120" height="60" as="geometry"/>
                </mxCell>
                <mxCell id="189" style="edgeStyle=none;html=1;endArrow=none;endFill=0;" parent="1" source="186" target="183" edge="1">
                    <mxGeometry relative="1" as="geometry"/>
                </mxCell>
                <mxCell id="186" value="size" style="ellipse;whiteSpace=wrap;html=1;align=center;" parent="1" vertex="1">
                    <mxGeometry x="820" y="320" width="100" height="40" as="geometry"/>
                </mxCell>
                <mxCell id="188" style="edgeStyle=none;html=1;endArrow=none;endFill=0;" parent="1" source="187" target="183" edge="1">
                    <mxGeometry relative="1" as="geometry"/>
                </mxCell>
                <mxCell id="187" value="stok" style="ellipse;whiteSpace=wrap;html=1;align=center;" parent="1" vertex="1">
                    <mxGeometry x="550" y="330" width="100" height="40" as="geometry"/>
                </mxCell>
                <mxCell id="194" style="edgeStyle=none;html=1;exitX=1;exitY=1;exitDx=0;exitDy=0;entryX=0;entryY=0.25;entryDx=0;entryDy=0;endArrow=none;endFill=0;" parent="1" source="193" target="183" edge="1">
                    <mxGeometry relative="1" as="geometry"/>
                </mxCell>
                <mxCell id="193" value="&lt;u&gt;id_detail_barang&lt;/u&gt;" style="ellipse;whiteSpace=wrap;html=1;align=center;" parent="1" vertex="1">
                    <mxGeometry x="540" y="260" width="100" height="40" as="geometry"/>
                </mxCell>
                <mxCell id="196" style="edgeStyle=none;html=1;exitX=0;exitY=1;exitDx=0;exitDy=0;entryX=1;entryY=0.25;entryDx=0;entryDy=0;endArrow=none;endFill=0;" parent="1" source="195" target="183" edge="1">
                    <mxGeometry relative="1" as="geometry"/>
                </mxCell>
                <mxCell id="195" value="id_barang" style="ellipse;whiteSpace=wrap;html=1;align=center;" parent="1" vertex="1">
                    <mxGeometry x="820" y="260" width="100" height="40" as="geometry"/>
                </mxCell>
                <mxCell id="198" style="edgeStyle=none;html=1;exitX=1;exitY=0;exitDx=0;exitDy=0;entryX=0;entryY=1;entryDx=0;entryDy=0;endArrow=none;endFill=0;" parent="1" source="197" target="128" edge="1">
                    <mxGeometry relative="1" as="geometry"/>
                </mxCell>
                <mxCell id="197" value="&lt;u&gt;id_keranjang&lt;/u&gt;" style="ellipse;whiteSpace=wrap;html=1;align=center;" parent="1" vertex="1">
                    <mxGeometry x="780" y="510" width="100" height="40" as="geometry"/>
                </mxCell>
            </root>
        </mxGraphModel>
    </diagram>
    <diagram id="EYhZuFPFbB-AK65SNp7y" name="DAD KONTEK">
        <mxGraphModel dx="1089" dy="444" grid="1" gridSize="10" guides="1" tooltips="1" connect="1" arrows="1" fold="1" page="1" pageScale="1" pageWidth="850" pageHeight="1100" math="0" shadow="0">
            <root>
                <mxCell id="Kgd-2XGxyOf1v5lhf9e6-0"/>
                <mxCell id="Kgd-2XGxyOf1v5lhf9e6-1" parent="Kgd-2XGxyOf1v5lhf9e6-0"/>
                <mxCell id="YK3bInJyaNaiGqx8NgL6-6" style="edgeStyle=none;html=1;exitX=-0.001;exitY=0.593;exitDx=0;exitDy=0;entryX=1;entryY=0.75;entryDx=0;entryDy=0;exitPerimeter=0;" parent="Kgd-2XGxyOf1v5lhf9e6-1" source="YK3bInJyaNaiGqx8NgL6-1" target="YK3bInJyaNaiGqx8NgL6-2" edge="1">
                    <mxGeometry relative="1" as="geometry"/>
                </mxCell>
                <mxCell id="YK3bInJyaNaiGqx8NgL6-8" value="&lt;span style=&quot;font-size: 12px&quot;&gt;info Admin&lt;/span&gt;&lt;br style=&quot;font-size: 12px&quot;&gt;&lt;span style=&quot;font-size: 12px&quot;&gt;Info Jenis&lt;/span&gt;&lt;br style=&quot;font-size: 12px&quot;&gt;&lt;span style=&quot;font-size: 12px&quot;&gt;Info Barang&lt;/span&gt;&lt;br style=&quot;font-size: 12px&quot;&gt;&lt;span style=&quot;font-size: 12px&quot;&gt;Info Pelanggan&lt;/span&gt;&lt;br style=&quot;font-size: 12px&quot;&gt;&lt;span style=&quot;font-size: 12px&quot;&gt;Info Transaksi&lt;/span&gt;&lt;br style=&quot;font-size: 12px&quot;&gt;&lt;span style=&quot;font-size: 12px&quot;&gt;Info Kategori Transaksi&lt;/span&gt;" style="edgeLabel;html=1;align=center;verticalAlign=middle;resizable=0;points=[];" parent="YK3bInJyaNaiGqx8NgL6-6" vertex="1" connectable="0">
                    <mxGeometry x="0.2285" y="-2" relative="1" as="geometry">
                        <mxPoint x="27" y="36" as="offset"/>
                    </mxGeometry>
                </mxCell>
                <mxCell id="YK3bInJyaNaiGqx8NgL6-11" style="edgeStyle=none;html=1;entryX=0;entryY=0.75;entryDx=0;entryDy=0;exitX=1.024;exitY=0.593;exitDx=0;exitDy=0;exitPerimeter=0;" parent="Kgd-2XGxyOf1v5lhf9e6-1" source="YK3bInJyaNaiGqx8NgL6-1" target="YK3bInJyaNaiGqx8NgL6-3" edge="1">
                    <mxGeometry relative="1" as="geometry"/>
                </mxCell>
                <mxCell id="YK3bInJyaNaiGqx8NgL6-12" value="Info Pelanggan&lt;br&gt;Info Transaksi&lt;br&gt;info Payment" style="edgeLabel;html=1;align=center;verticalAlign=middle;resizable=0;points=[];" parent="YK3bInJyaNaiGqx8NgL6-11" vertex="1" connectable="0">
                    <mxGeometry x="-0.1808" y="1" relative="1" as="geometry">
                        <mxPoint x="10" y="12" as="offset"/>
                    </mxGeometry>
                </mxCell>
                <mxCell id="YK3bInJyaNaiGqx8NgL6-1" value="SISTEM ELTORO" style="shape=ellipse;html=1;dashed=0;whitespace=wrap;perimeter=ellipsePerimeter;" parent="Kgd-2XGxyOf1v5lhf9e6-1" vertex="1">
                    <mxGeometry x="350" y="100" width="170" height="160" as="geometry"/>
                </mxCell>
                <mxCell id="YK3bInJyaNaiGqx8NgL6-4" style="edgeStyle=none;html=1;exitX=1;exitY=0.25;exitDx=0;exitDy=0;entryX=0.059;entryY=0.425;entryDx=0;entryDy=0;entryPerimeter=0;" parent="Kgd-2XGxyOf1v5lhf9e6-1" source="YK3bInJyaNaiGqx8NgL6-2" target="YK3bInJyaNaiGqx8NgL6-1" edge="1">
                    <mxGeometry relative="1" as="geometry"/>
                </mxCell>
                <mxCell id="YK3bInJyaNaiGqx8NgL6-5" value="Data Admin&lt;br&gt;Data Jenis&lt;br&gt;Data Barang&lt;br&gt;Data Kategori Transkasi" style="edgeLabel;html=1;align=center;verticalAlign=middle;resizable=0;points=[];" parent="YK3bInJyaNaiGqx8NgL6-4" vertex="1" connectable="0">
                    <mxGeometry x="-0.388" y="2" relative="1" as="geometry">
                        <mxPoint x="39" y="-16" as="offset"/>
                    </mxGeometry>
                </mxCell>
                <mxCell id="YK3bInJyaNaiGqx8NgL6-2" value="Admin" style="html=1;dashed=0;whitespace=wrap;" parent="Kgd-2XGxyOf1v5lhf9e6-1" vertex="1">
                    <mxGeometry x="50" y="155" width="110" height="55" as="geometry"/>
                </mxCell>
                <mxCell id="YK3bInJyaNaiGqx8NgL6-9" style="edgeStyle=none;html=1;exitX=0;exitY=0.25;exitDx=0;exitDy=0;entryX=0.999;entryY=0.431;entryDx=0;entryDy=0;entryPerimeter=0;" parent="Kgd-2XGxyOf1v5lhf9e6-1" source="YK3bInJyaNaiGqx8NgL6-3" target="YK3bInJyaNaiGqx8NgL6-1" edge="1">
                    <mxGeometry relative="1" as="geometry"/>
                </mxCell>
                <mxCell id="YK3bInJyaNaiGqx8NgL6-10" value="Data Pelanggan&lt;br&gt;Data Transaksi&lt;br&gt;Data Payment" style="edgeLabel;html=1;align=center;verticalAlign=middle;resizable=0;points=[];" parent="YK3bInJyaNaiGqx8NgL6-9" vertex="1" connectable="0">
                    <mxGeometry x="0.4493" y="2" relative="1" as="geometry">
                        <mxPoint x="38" y="-11" as="offset"/>
                    </mxGeometry>
                </mxCell>
                <mxCell id="YK3bInJyaNaiGqx8NgL6-3" value="Pelanggan" style="html=1;dashed=0;whitespace=wrap;" parent="Kgd-2XGxyOf1v5lhf9e6-1" vertex="1">
                    <mxGeometry x="710" y="155" width="100" height="50" as="geometry"/>
                </mxCell>
            </root>
        </mxGraphModel>
    </diagram>
    <diagram id="dHcPe0rd3ZRbnGIvVDC-" name="DIAGRAM JENJANG">
        <mxGraphModel dx="1657" dy="329" grid="1" gridSize="10" guides="1" tooltips="1" connect="1" arrows="1" fold="1" page="1" pageScale="1" pageWidth="850" pageHeight="1100" math="0" shadow="0">
            <root>
                <mxCell id="tbWJ9JcDK-i9seMHNzCR-0"/>
                <mxCell id="tbWJ9JcDK-i9seMHNzCR-1" parent="tbWJ9JcDK-i9seMHNzCR-0"/>
                <mxCell id="tbWJ9JcDK-i9seMHNzCR-11" style="edgeStyle=none;html=1;entryX=0.5;entryY=0;entryDx=0;entryDy=0;exitX=0.5;exitY=1;exitDx=0;exitDy=0;endArrow=none;endFill=0;" parent="tbWJ9JcDK-i9seMHNzCR-1" source="tbWJ9JcDK-i9seMHNzCR-2" target="tbWJ9JcDK-i9seMHNzCR-4" edge="1">
                    <mxGeometry relative="1" as="geometry">
                        <Array as="points">
                            <mxPoint x="470" y="160"/>
                            <mxPoint x="85" y="160"/>
                        </Array>
                    </mxGeometry>
                </mxCell>
                <mxCell id="tbWJ9JcDK-i9seMHNzCR-16" style="edgeStyle=none;html=1;exitX=0.5;exitY=1;exitDx=0;exitDy=0;entryX=0.5;entryY=0;entryDx=0;entryDy=0;endArrow=none;endFill=0;" parent="tbWJ9JcDK-i9seMHNzCR-1" source="tbWJ9JcDK-i9seMHNzCR-2" target="tbWJ9JcDK-i9seMHNzCR-8" edge="1">
                    <mxGeometry relative="1" as="geometry">
                        <Array as="points">
                            <mxPoint x="470" y="160"/>
                            <mxPoint x="1075" y="160"/>
                        </Array>
                    </mxGeometry>
                </mxCell>
                <mxCell id="tbWJ9JcDK-i9seMHNzCR-17" style="edgeStyle=none;html=1;exitX=0.5;exitY=1;exitDx=0;exitDy=0;entryX=0.5;entryY=0;entryDx=0;entryDy=0;endArrow=none;endFill=0;" parent="tbWJ9JcDK-i9seMHNzCR-1" source="tbWJ9JcDK-i9seMHNzCR-2" target="tbWJ9JcDK-i9seMHNzCR-9" edge="1">
                    <mxGeometry relative="1" as="geometry">
                        <Array as="points">
                            <mxPoint x="470" y="160"/>
                            <mxPoint x="1365" y="160"/>
                        </Array>
                    </mxGeometry>
                </mxCell>
                <mxCell id="n3OmwV_cx_tOfR_caZLh-9" style="edgeStyle=none;html=1;entryX=0.5;entryY=0;entryDx=0;entryDy=0;endArrow=none;endFill=0;" parent="tbWJ9JcDK-i9seMHNzCR-1" source="tbWJ9JcDK-i9seMHNzCR-2" target="n3OmwV_cx_tOfR_caZLh-3" edge="1">
                    <mxGeometry relative="1" as="geometry"/>
                </mxCell>
                <mxCell id="tbWJ9JcDK-i9seMHNzCR-2" value="0&lt;br&gt;SISTEM&lt;br&gt;ELTORO" style="shape=ellipse;html=1;dashed=0;whitespace=wrap;aspect=fixed;perimeter=ellipsePerimeter;" parent="tbWJ9JcDK-i9seMHNzCR-1" vertex="1">
                    <mxGeometry x="425" y="50" width="90" height="90" as="geometry"/>
                </mxCell>
                <mxCell id="xDCdpL79MXj7QkfQwz3w-3" style="edgeStyle=none;html=1;entryX=0.5;entryY=0;entryDx=0;entryDy=0;endArrow=none;endFill=0;exitX=0.5;exitY=1;exitDx=0;exitDy=0;" parent="tbWJ9JcDK-i9seMHNzCR-1" source="tbWJ9JcDK-i9seMHNzCR-4" target="xDCdpL79MXj7QkfQwz3w-1" edge="1">
                    <mxGeometry relative="1" as="geometry">
                        <Array as="points">
                            <mxPoint x="80" y="320"/>
                            <mxPoint x="-35" y="320"/>
                        </Array>
                    </mxGeometry>
                </mxCell>
                <mxCell id="tbWJ9JcDK-i9seMHNzCR-4" value="1&lt;br&gt;AUTH" style="shape=ellipse;html=1;dashed=0;whitespace=wrap;aspect=fixed;perimeter=ellipsePerimeter;" parent="tbWJ9JcDK-i9seMHNzCR-1" vertex="1">
                    <mxGeometry x="40" y="210" width="90" height="90" as="geometry"/>
                </mxCell>
                <mxCell id="tbWJ9JcDK-i9seMHNzCR-5" value="2.1&lt;br&gt;PENGOLAHAN&lt;br&gt;ADMIN" style="shape=ellipse;html=1;dashed=0;whitespace=wrap;aspect=fixed;perimeter=ellipsePerimeter;" parent="tbWJ9JcDK-i9seMHNzCR-1" vertex="1">
                    <mxGeometry x="230" y="360" width="90" height="90" as="geometry"/>
                </mxCell>
                <mxCell id="tbWJ9JcDK-i9seMHNzCR-6" value="2.2&lt;br&gt;PENGOLAHAN&lt;br&gt;JENIS" style="shape=ellipse;html=1;dashed=0;whitespace=wrap;aspect=fixed;perimeter=ellipsePerimeter;" parent="tbWJ9JcDK-i9seMHNzCR-1" vertex="1">
                    <mxGeometry x="370" y="360" width="90" height="90" as="geometry"/>
                </mxCell>
                <mxCell id="tbWJ9JcDK-i9seMHNzCR-7" value="2.3&lt;br&gt;PENGOLAHAN&lt;br&gt;BARANG" style="shape=ellipse;html=1;dashed=0;whitespace=wrap;aspect=fixed;perimeter=ellipsePerimeter;" parent="tbWJ9JcDK-i9seMHNzCR-1" vertex="1">
                    <mxGeometry x="495" y="360" width="90" height="90" as="geometry"/>
                </mxCell>
                <mxCell id="n3OmwV_cx_tOfR_caZLh-11" style="edgeStyle=none;html=1;entryX=0.5;entryY=0;entryDx=0;entryDy=0;endArrow=none;endFill=0;" parent="tbWJ9JcDK-i9seMHNzCR-1" source="tbWJ9JcDK-i9seMHNzCR-8" target="xDCdpL79MXj7QkfQwz3w-8" edge="1">
                    <mxGeometry relative="1" as="geometry">
                        <Array as="points">
                            <mxPoint x="1080" y="320"/>
                            <mxPoint x="1005" y="320"/>
                        </Array>
                    </mxGeometry>
                </mxCell>
                <mxCell id="n3OmwV_cx_tOfR_caZLh-12" style="edgeStyle=none;html=1;entryX=0.5;entryY=0;entryDx=0;entryDy=0;endArrow=none;endFill=0;" parent="tbWJ9JcDK-i9seMHNzCR-1" source="tbWJ9JcDK-i9seMHNzCR-8" target="xDCdpL79MXj7QkfQwz3w-5" edge="1">
                    <mxGeometry relative="1" as="geometry">
                        <Array as="points">
                            <mxPoint x="1080" y="320"/>
                            <mxPoint x="1130" y="320"/>
                        </Array>
                    </mxGeometry>
                </mxCell>
                <mxCell id="tbWJ9JcDK-i9seMHNzCR-8" value="3&lt;br&gt;PENGOLAHAN&lt;br&gt;TRANSAKSI" style="shape=ellipse;html=1;dashed=0;whitespace=wrap;aspect=fixed;perimeter=ellipsePerimeter;" parent="tbWJ9JcDK-i9seMHNzCR-1" vertex="1">
                    <mxGeometry x="1030" y="210" width="90" height="90" as="geometry"/>
                </mxCell>
                <mxCell id="tbWJ9JcDK-i9seMHNzCR-9" value="4&lt;br&gt;PENGOLAHAN&lt;br&gt;LAPORAN" style="shape=ellipse;html=1;dashed=0;whitespace=wrap;aspect=fixed;perimeter=ellipsePerimeter;" parent="tbWJ9JcDK-i9seMHNzCR-1" vertex="1">
                    <mxGeometry x="1320" y="210" width="90" height="90" as="geometry"/>
                </mxCell>
                <mxCell id="xDCdpL79MXj7QkfQwz3w-1" value="1.1&lt;br&gt;REGISTER" style="shape=ellipse;html=1;dashed=0;whitespace=wrap;aspect=fixed;perimeter=ellipsePerimeter;" parent="tbWJ9JcDK-i9seMHNzCR-1" vertex="1">
                    <mxGeometry x="-80" y="360" width="90" height="90" as="geometry"/>
                </mxCell>
                <mxCell id="xDCdpL79MXj7QkfQwz3w-4" style="edgeStyle=none;html=1;entryX=0.5;entryY=1;entryDx=0;entryDy=0;endArrow=none;endFill=0;" parent="tbWJ9JcDK-i9seMHNzCR-1" source="xDCdpL79MXj7QkfQwz3w-2" target="tbWJ9JcDK-i9seMHNzCR-4" edge="1">
                    <mxGeometry relative="1" as="geometry">
                        <Array as="points">
                            <mxPoint x="165" y="320"/>
                            <mxPoint x="85" y="320"/>
                        </Array>
                    </mxGeometry>
                </mxCell>
                <mxCell id="xDCdpL79MXj7QkfQwz3w-2" value="1.2&lt;br&gt;LOGIN" style="shape=ellipse;html=1;dashed=0;whitespace=wrap;aspect=fixed;perimeter=ellipsePerimeter;" parent="tbWJ9JcDK-i9seMHNzCR-1" vertex="1">
                    <mxGeometry x="120" y="360" width="90" height="90" as="geometry"/>
                </mxCell>
                <mxCell id="xDCdpL79MXj7QkfQwz3w-5" value="3.2&lt;br&gt;PENGOLAHAN&lt;br&gt;TRANSAKSI" style="shape=ellipse;html=1;dashed=0;whitespace=wrap;aspect=fixed;perimeter=ellipsePerimeter;" parent="tbWJ9JcDK-i9seMHNzCR-1" vertex="1">
                    <mxGeometry x="1085" y="360" width="90" height="90" as="geometry"/>
                </mxCell>
                <mxCell id="xDCdpL79MXj7QkfQwz3w-7" value="2.5&lt;br&gt;PENGOLAHAN&lt;br&gt;KATEGORI&lt;br&gt;TRANSAKSI" style="shape=ellipse;html=1;dashed=0;whitespace=wrap;aspect=fixed;perimeter=ellipsePerimeter;" parent="tbWJ9JcDK-i9seMHNzCR-1" vertex="1">
                    <mxGeometry x="780" y="360" width="90" height="90" as="geometry"/>
                </mxCell>
                <mxCell id="xDCdpL79MXj7QkfQwz3w-8" value="3.1&lt;br&gt;PENGOLAHAN&lt;br&gt;STATUS&lt;br&gt;TRANSAKSI" style="shape=ellipse;html=1;dashed=0;whitespace=wrap;aspect=fixed;perimeter=ellipsePerimeter;" parent="tbWJ9JcDK-i9seMHNzCR-1" vertex="1">
                    <mxGeometry x="960" y="360" width="90" height="90" as="geometry"/>
                </mxCell>
                <mxCell id="n3OmwV_cx_tOfR_caZLh-0" value="2.4&lt;br&gt;PENGOLAHAN&lt;br&gt;PELANGGAN" style="shape=ellipse;html=1;dashed=0;whitespace=wrap;aspect=fixed;perimeter=ellipsePerimeter;" parent="tbWJ9JcDK-i9seMHNzCR-1" vertex="1">
                    <mxGeometry x="640" y="360" width="90" height="90" as="geometry"/>
                </mxCell>
                <mxCell id="n3OmwV_cx_tOfR_caZLh-5" style="edgeStyle=none;html=1;entryX=0.5;entryY=0;entryDx=0;entryDy=0;endArrow=none;endFill=0;" parent="tbWJ9JcDK-i9seMHNzCR-1" source="n3OmwV_cx_tOfR_caZLh-3" target="tbWJ9JcDK-i9seMHNzCR-5" edge="1">
                    <mxGeometry relative="1" as="geometry">
                        <Array as="points">
                            <mxPoint x="475" y="320"/>
                            <mxPoint x="275" y="320"/>
                        </Array>
                    </mxGeometry>
                </mxCell>
                <mxCell id="n3OmwV_cx_tOfR_caZLh-6" style="edgeStyle=none;html=1;entryX=0.5;entryY=0;entryDx=0;entryDy=0;endArrow=none;endFill=0;" parent="tbWJ9JcDK-i9seMHNzCR-1" source="n3OmwV_cx_tOfR_caZLh-3" target="tbWJ9JcDK-i9seMHNzCR-6" edge="1">
                    <mxGeometry relative="1" as="geometry">
                        <Array as="points">
                            <mxPoint x="475" y="320"/>
                            <mxPoint x="415" y="320"/>
                        </Array>
                    </mxGeometry>
                </mxCell>
                <mxCell id="n3OmwV_cx_tOfR_caZLh-7" style="edgeStyle=none;html=1;entryX=0.5;entryY=0;entryDx=0;entryDy=0;endArrow=none;endFill=0;" parent="tbWJ9JcDK-i9seMHNzCR-1" source="n3OmwV_cx_tOfR_caZLh-3" target="tbWJ9JcDK-i9seMHNzCR-7" edge="1">
                    <mxGeometry relative="1" as="geometry">
                        <Array as="points">
                            <mxPoint x="475" y="320"/>
                            <mxPoint x="540" y="320"/>
                        </Array>
                    </mxGeometry>
                </mxCell>
                <mxCell id="n3OmwV_cx_tOfR_caZLh-8" style="edgeStyle=none;html=1;entryX=0.5;entryY=0;entryDx=0;entryDy=0;endArrow=none;endFill=0;" parent="tbWJ9JcDK-i9seMHNzCR-1" source="n3OmwV_cx_tOfR_caZLh-3" target="n3OmwV_cx_tOfR_caZLh-0" edge="1">
                    <mxGeometry relative="1" as="geometry">
                        <Array as="points">
                            <mxPoint x="475" y="320"/>
                            <mxPoint x="685" y="320"/>
                        </Array>
                    </mxGeometry>
                </mxCell>
                <mxCell id="l_iGlG2Aumt8tso2OZq0-0" style="edgeStyle=none;html=1;entryX=0.5;entryY=0;entryDx=0;entryDy=0;endArrow=none;endFill=0;" parent="tbWJ9JcDK-i9seMHNzCR-1" source="n3OmwV_cx_tOfR_caZLh-3" target="xDCdpL79MXj7QkfQwz3w-7" edge="1">
                    <mxGeometry relative="1" as="geometry">
                        <Array as="points">
                            <mxPoint x="475" y="320"/>
                            <mxPoint x="825" y="320"/>
                        </Array>
                    </mxGeometry>
                </mxCell>
                <mxCell id="n3OmwV_cx_tOfR_caZLh-3" value="2&lt;br&gt;DATA&lt;br&gt;MASTER" style="shape=ellipse;html=1;dashed=0;whitespace=wrap;aspect=fixed;perimeter=ellipsePerimeter;" parent="tbWJ9JcDK-i9seMHNzCR-1" vertex="1">
                    <mxGeometry x="430" y="210" width="90" height="90" as="geometry"/>
                </mxCell>
                <mxCell id="HSoikYy4JM-6XUL_MYl_-1" style="edgeStyle=none;html=1;entryX=0.543;entryY=1.003;entryDx=0;entryDy=0;entryPerimeter=0;endArrow=none;endFill=0;" edge="1" parent="tbWJ9JcDK-i9seMHNzCR-1" source="HSoikYy4JM-6XUL_MYl_-0" target="tbWJ9JcDK-i9seMHNzCR-8">
                    <mxGeometry relative="1" as="geometry">
                        <mxPoint x="1078" y="300" as="targetPoint"/>
                        <Array as="points">
                            <mxPoint x="1260" y="320"/>
                            <mxPoint x="1080" y="320"/>
                        </Array>
                    </mxGeometry>
                </mxCell>
                <mxCell id="HSoikYy4JM-6XUL_MYl_-0" value="3.3&lt;br&gt;PENGOLAHAN&lt;br&gt;PAYMENT" style="shape=ellipse;html=1;dashed=0;whitespace=wrap;aspect=fixed;perimeter=ellipsePerimeter;" vertex="1" parent="tbWJ9JcDK-i9seMHNzCR-1">
                    <mxGeometry x="1220" y="360" width="90" height="90" as="geometry"/>
                </mxCell>
            </root>
        </mxGraphModel>
    </diagram>
    <diagram id="K3SieHocM1gqrre0EPXO" name="DAD 1">
        <mxGraphModel dx="2772" dy="1918" grid="1" gridSize="10" guides="1" tooltips="1" connect="1" arrows="1" fold="1" page="1" pageScale="1" pageWidth="850" pageHeight="1100" math="0" shadow="0">
            <root>
                <mxCell id="6WCOiHOuQoVAaPMAjylX-0"/>
                <mxCell id="6WCOiHOuQoVAaPMAjylX-1" parent="6WCOiHOuQoVAaPMAjylX-0"/>
                <mxCell id="uyhAINpwLUrzwMEfwZNO-28" style="edgeStyle=none;html=1;exitX=1;exitY=0.25;exitDx=0;exitDy=0;entryX=-0.011;entryY=0.372;entryDx=0;entryDy=0;entryPerimeter=0;" parent="6WCOiHOuQoVAaPMAjylX-1" source="J5ABlVMaNGSevIPnoZgr-0" target="J5ABlVMaNGSevIPnoZgr-2" edge="1">
                    <mxGeometry relative="1" as="geometry"/>
                </mxCell>
                <mxCell id="uyhAINpwLUrzwMEfwZNO-29" value="DATA ADMIN&lt;br&gt;DATA JENIS&lt;br&gt;DATA BARANG&lt;br&gt;DATA KATEGORI TRANSAKSI&lt;br&gt;DATA PELANGGAN" style="edgeLabel;html=1;align=center;verticalAlign=middle;resizable=0;points=[];" parent="uyhAINpwLUrzwMEfwZNO-28" vertex="1" connectable="0">
                    <mxGeometry x="0.1675" y="2" relative="1" as="geometry">
                        <mxPoint x="-20" y="-16" as="offset"/>
                    </mxGeometry>
                </mxCell>
                <mxCell id="AHD6ZX6fc1YNQhfZo_go-0" style="edgeStyle=none;html=1;exitX=0.25;exitY=0;exitDx=0;exitDy=0;entryX=0.075;entryY=0.857;entryDx=0;entryDy=0;entryPerimeter=0;" parent="6WCOiHOuQoVAaPMAjylX-1" source="J5ABlVMaNGSevIPnoZgr-0" target="J5ABlVMaNGSevIPnoZgr-1" edge="1">
                    <mxGeometry relative="1" as="geometry">
                        <Array as="points">
                            <mxPoint x="115" y="110"/>
                            <mxPoint x="440" y="110"/>
                        </Array>
                    </mxGeometry>
                </mxCell>
                <mxCell id="AHD6ZX6fc1YNQhfZo_go-2" value="DATA ADMIN" style="edgeLabel;html=1;align=center;verticalAlign=middle;resizable=0;points=[];" parent="AHD6ZX6fc1YNQhfZo_go-0" vertex="1" connectable="0">
                    <mxGeometry x="-0.2851" relative="1" as="geometry">
                        <mxPoint as="offset"/>
                    </mxGeometry>
                </mxCell>
                <mxCell id="J5ABlVMaNGSevIPnoZgr-0" value="ADMIN" style="html=1;dashed=0;whitespace=wrap;" parent="6WCOiHOuQoVAaPMAjylX-1" vertex="1">
                    <mxGeometry x="90" y="180" width="100" height="50" as="geometry"/>
                </mxCell>
                <mxCell id="qbNbrrfpz8vCqyiGNXg7-23" style="edgeStyle=none;html=1;exitX=0.5;exitY=0;exitDx=0;exitDy=0;entryX=1;entryY=0.75;entryDx=0;entryDy=0;endArrow=classic;endFill=1;" parent="6WCOiHOuQoVAaPMAjylX-1" source="J5ABlVMaNGSevIPnoZgr-1" target="qbNbrrfpz8vCqyiGNXg7-3" edge="1">
                    <mxGeometry relative="1" as="geometry">
                        <Array as="points">
                            <mxPoint x="475" y="-70"/>
                            <mxPoint x="910" y="-70"/>
                            <mxPoint x="910" y="193"/>
                        </Array>
                    </mxGeometry>
                </mxCell>
                <mxCell id="qbNbrrfpz8vCqyiGNXg7-24" value="VERIFY DATA" style="edgeLabel;html=1;align=center;verticalAlign=middle;resizable=0;points=[];" parent="qbNbrrfpz8vCqyiGNXg7-23" vertex="1" connectable="0">
                    <mxGeometry x="-0.3523" y="2" relative="1" as="geometry">
                        <mxPoint as="offset"/>
                    </mxGeometry>
                </mxCell>
                <mxCell id="uyhAINpwLUrzwMEfwZNO-34" style="edgeStyle=none;html=1;entryX=1;entryY=0.75;entryDx=0;entryDy=0;exitX=0;exitY=0.639;exitDx=0;exitDy=0;exitPerimeter=0;" parent="6WCOiHOuQoVAaPMAjylX-1" source="J5ABlVMaNGSevIPnoZgr-1" target="qbNbrrfpz8vCqyiGNXg7-0" edge="1">
                    <mxGeometry relative="1" as="geometry"/>
                </mxCell>
                <mxCell id="uyhAINpwLUrzwMEfwZNO-35" value="INFO AUTH" style="edgeLabel;html=1;align=center;verticalAlign=middle;resizable=0;points=[];" parent="uyhAINpwLUrzwMEfwZNO-34" vertex="1" connectable="0">
                    <mxGeometry x="0.2917" y="-3" relative="1" as="geometry">
                        <mxPoint as="offset"/>
                    </mxGeometry>
                </mxCell>
                <mxCell id="AHD6ZX6fc1YNQhfZo_go-1" style="edgeStyle=none;html=1;exitX=0.315;exitY=1.033;exitDx=0;exitDy=0;entryX=0.5;entryY=0;entryDx=0;entryDy=0;exitPerimeter=0;" parent="6WCOiHOuQoVAaPMAjylX-1" source="J5ABlVMaNGSevIPnoZgr-1" target="J5ABlVMaNGSevIPnoZgr-0" edge="1">
                    <mxGeometry relative="1" as="geometry">
                        <Array as="points">
                            <mxPoint x="458" y="130"/>
                            <mxPoint x="140" y="130"/>
                        </Array>
                    </mxGeometry>
                </mxCell>
                <mxCell id="AHD6ZX6fc1YNQhfZo_go-3" value="INFO AUTH" style="edgeLabel;html=1;align=center;verticalAlign=middle;resizable=0;points=[];" parent="AHD6ZX6fc1YNQhfZo_go-1" vertex="1" connectable="0">
                    <mxGeometry x="0.4112" y="3" relative="1" as="geometry">
                        <mxPoint as="offset"/>
                    </mxGeometry>
                </mxCell>
                <mxCell id="J5ABlVMaNGSevIPnoZgr-1" value="1.&lt;br&gt;PENGOLAHAN&lt;br&gt;OTENTIFIKASI" style="shape=ellipse;html=1;dashed=0;whitespace=wrap;aspect=fixed;perimeter=ellipsePerimeter;" parent="6WCOiHOuQoVAaPMAjylX-1" vertex="1">
                    <mxGeometry x="425" y="5" width="100" height="100" as="geometry"/>
                </mxCell>
                <mxCell id="qbNbrrfpz8vCqyiGNXg7-10" style="edgeStyle=none;html=1;entryX=0.25;entryY=1;entryDx=0;entryDy=0;endArrow=classic;endFill=1;" parent="6WCOiHOuQoVAaPMAjylX-1" source="J5ABlVMaNGSevIPnoZgr-2" target="qbNbrrfpz8vCqyiGNXg7-2" edge="1">
                    <mxGeometry relative="1" as="geometry">
                        <Array as="points">
                            <mxPoint x="475" y="110"/>
                            <mxPoint x="735" y="110"/>
                        </Array>
                    </mxGeometry>
                </mxCell>
                <mxCell id="qbNbrrfpz8vCqyiGNXg7-15" value="DATA ADMIN" style="edgeLabel;html=1;align=center;verticalAlign=middle;resizable=0;points=[];" parent="qbNbrrfpz8vCqyiGNXg7-10" vertex="1" connectable="0">
                    <mxGeometry x="0.2062" y="-2" relative="1" as="geometry">
                        <mxPoint as="offset"/>
                    </mxGeometry>
                </mxCell>
                <mxCell id="uyhAINpwLUrzwMEfwZNO-0" style="edgeStyle=none;html=1;entryX=0;entryY=0.25;entryDx=0;entryDy=0;" parent="6WCOiHOuQoVAaPMAjylX-1" source="J5ABlVMaNGSevIPnoZgr-2" target="qbNbrrfpz8vCqyiGNXg7-4" edge="1">
                    <mxGeometry relative="1" as="geometry">
                        <Array as="points">
                            <mxPoint x="650" y="210"/>
                            <mxPoint x="650" y="238"/>
                        </Array>
                    </mxGeometry>
                </mxCell>
                <mxCell id="uyhAINpwLUrzwMEfwZNO-11" value="DATA JENIS" style="edgeLabel;html=1;align=center;verticalAlign=middle;resizable=0;points=[];" parent="uyhAINpwLUrzwMEfwZNO-0" vertex="1" connectable="0">
                    <mxGeometry x="-0.7822" y="1" relative="1" as="geometry">
                        <mxPoint x="26" y="-1" as="offset"/>
                    </mxGeometry>
                </mxCell>
                <mxCell id="uyhAINpwLUrzwMEfwZNO-2" style="edgeStyle=none;html=1;entryX=0;entryY=0.25;entryDx=0;entryDy=0;exitX=1;exitY=1;exitDx=0;exitDy=0;" parent="6WCOiHOuQoVAaPMAjylX-1" source="J5ABlVMaNGSevIPnoZgr-2" target="qbNbrrfpz8vCqyiGNXg7-5" edge="1">
                    <mxGeometry relative="1" as="geometry">
                        <Array as="points">
                            <mxPoint x="560" y="237"/>
                            <mxPoint x="560" y="338"/>
                        </Array>
                    </mxGeometry>
                </mxCell>
                <mxCell id="uyhAINpwLUrzwMEfwZNO-9" value="DATA BARANG" style="edgeLabel;html=1;align=center;verticalAlign=middle;resizable=0;points=[];" parent="uyhAINpwLUrzwMEfwZNO-2" vertex="1" connectable="0">
                    <mxGeometry x="0.2882" y="3" relative="1" as="geometry">
                        <mxPoint as="offset"/>
                    </mxGeometry>
                </mxCell>
                <mxCell id="uyhAINpwLUrzwMEfwZNO-4" style="edgeStyle=none;html=1;entryX=0;entryY=0.25;entryDx=0;entryDy=0;exitX=0.741;exitY=0.996;exitDx=0;exitDy=0;exitPerimeter=0;" parent="6WCOiHOuQoVAaPMAjylX-1" source="J5ABlVMaNGSevIPnoZgr-2" target="qbNbrrfpz8vCqyiGNXg7-6" edge="1">
                    <mxGeometry relative="1" as="geometry">
                        <Array as="points">
                            <mxPoint x="497" y="448"/>
                        </Array>
                    </mxGeometry>
                </mxCell>
                <mxCell id="uyhAINpwLUrzwMEfwZNO-7" value="DATA KATEGORI TRANSAKSI" style="edgeLabel;html=1;align=center;verticalAlign=middle;resizable=0;points=[];" parent="uyhAINpwLUrzwMEfwZNO-4" vertex="1" connectable="0">
                    <mxGeometry x="0.2353" y="-3" relative="1" as="geometry">
                        <mxPoint x="47" y="-1" as="offset"/>
                    </mxGeometry>
                </mxCell>
                <mxCell id="uyhAINpwLUrzwMEfwZNO-13" style="edgeStyle=none;html=1;exitX=0;exitY=1;exitDx=0;exitDy=0;entryX=0.5;entryY=0;entryDx=0;entryDy=0;" parent="6WCOiHOuQoVAaPMAjylX-1" source="J5ABlVMaNGSevIPnoZgr-2" target="qbNbrrfpz8vCqyiGNXg7-9" edge="1">
                    <mxGeometry relative="1" as="geometry">
                        <mxPoint x="760" y="550" as="targetPoint"/>
                        <Array as="points">
                            <mxPoint x="443" y="490"/>
                            <mxPoint x="760" y="490"/>
                        </Array>
                    </mxGeometry>
                </mxCell>
                <mxCell id="uyhAINpwLUrzwMEfwZNO-14" value="DATA KATEGORI TRANSAKSI" style="edgeLabel;html=1;align=center;verticalAlign=middle;resizable=0;points=[];" parent="uyhAINpwLUrzwMEfwZNO-13" vertex="1" connectable="0">
                    <mxGeometry x="0.247" relative="1" as="geometry">
                        <mxPoint as="offset"/>
                    </mxGeometry>
                </mxCell>
                <mxCell id="uyhAINpwLUrzwMEfwZNO-30" style="edgeStyle=none;html=1;entryX=1;entryY=0.75;entryDx=0;entryDy=0;exitX=0;exitY=0.639;exitDx=0;exitDy=0;exitPerimeter=0;" parent="6WCOiHOuQoVAaPMAjylX-1" source="J5ABlVMaNGSevIPnoZgr-2" target="J5ABlVMaNGSevIPnoZgr-0" edge="1">
                    <mxGeometry relative="1" as="geometry"/>
                </mxCell>
                <mxCell id="uyhAINpwLUrzwMEfwZNO-31" value="INFO ADMIN&lt;br&gt;INFO JENIS&lt;br&gt;INFO BARANG&lt;br&gt;INFO DATA TRANSAKSI&lt;br&gt;INFO PELANGGAN" style="edgeLabel;html=1;align=center;verticalAlign=middle;resizable=0;points=[];" parent="uyhAINpwLUrzwMEfwZNO-30" vertex="1" connectable="0">
                    <mxGeometry x="0.1122" y="1" relative="1" as="geometry">
                        <mxPoint x="13" y="27" as="offset"/>
                    </mxGeometry>
                </mxCell>
                <mxCell id="wFFzQhJhPdfS1iWcFC7o-0" style="edgeStyle=none;html=1;exitX=1;exitY=0;exitDx=0;exitDy=0;entryX=0;entryY=0.25;entryDx=0;entryDy=0;" parent="6WCOiHOuQoVAaPMAjylX-1" source="J5ABlVMaNGSevIPnoZgr-2" target="qbNbrrfpz8vCqyiGNXg7-3" edge="1">
                    <mxGeometry relative="1" as="geometry"/>
                </mxCell>
                <mxCell id="wFFzQhJhPdfS1iWcFC7o-2" value="DATA PELANGGAN" style="edgeLabel;html=1;align=center;verticalAlign=middle;resizable=0;points=[];" parent="wFFzQhJhPdfS1iWcFC7o-0" vertex="1" connectable="0">
                    <mxGeometry x="-0.2173" y="-2" relative="1" as="geometry">
                        <mxPoint as="offset"/>
                    </mxGeometry>
                </mxCell>
                <mxCell id="J5ABlVMaNGSevIPnoZgr-2" value="2.&lt;br&gt;PENGOLAHAN&lt;br&gt;DATA&lt;br&gt;MASTER" style="shape=ellipse;html=1;dashed=0;whitespace=wrap;aspect=fixed;perimeter=ellipsePerimeter;" parent="6WCOiHOuQoVAaPMAjylX-1" vertex="1">
                    <mxGeometry x="430" y="160" width="90" height="90" as="geometry"/>
                </mxCell>
                <mxCell id="uyhAINpwLUrzwMEfwZNO-16" style="edgeStyle=none;html=1;exitX=1;exitY=0;exitDx=0;exitDy=0;entryX=0;entryY=0.25;entryDx=0;entryDy=0;" parent="6WCOiHOuQoVAaPMAjylX-1" source="1AN4CyRoC1kaTtG0HpXZ-0" target="qbNbrrfpz8vCqyiGNXg7-9" edge="1">
                    <mxGeometry relative="1" as="geometry"/>
                </mxCell>
                <mxCell id="uyhAINpwLUrzwMEfwZNO-17" value="DATA TRANSAKSI" style="edgeLabel;html=1;align=center;verticalAlign=middle;resizable=0;points=[];" parent="uyhAINpwLUrzwMEfwZNO-16" vertex="1" connectable="0">
                    <mxGeometry x="-0.2327" y="-3" relative="1" as="geometry">
                        <mxPoint as="offset"/>
                    </mxGeometry>
                </mxCell>
                <mxCell id="uyhAINpwLUrzwMEfwZNO-20" style="edgeStyle=none;html=1;exitX=1;exitY=1;exitDx=0;exitDy=0;entryX=0.25;entryY=0;entryDx=0;entryDy=0;" parent="6WCOiHOuQoVAaPMAjylX-1" source="1AN4CyRoC1kaTtG0HpXZ-0" target="uyhAINpwLUrzwMEfwZNO-15" edge="1">
                    <mxGeometry relative="1" as="geometry">
                        <Array as="points">
                            <mxPoint x="725" y="627"/>
                        </Array>
                    </mxGeometry>
                </mxCell>
                <mxCell id="uyhAINpwLUrzwMEfwZNO-21" value="DATA TRANSAKSI&lt;br&gt;DATA PAYMENT" style="edgeLabel;html=1;align=center;verticalAlign=middle;resizable=0;points=[];" parent="uyhAINpwLUrzwMEfwZNO-20" vertex="1" connectable="0">
                    <mxGeometry x="-0.4555" y="-2" relative="1" as="geometry">
                        <mxPoint as="offset"/>
                    </mxGeometry>
                </mxCell>
                <mxCell id="uyhAINpwLUrzwMEfwZNO-39" style="edgeStyle=none;html=1;exitX=0;exitY=1;exitDx=0;exitDy=0;entryX=0;entryY=0.25;entryDx=0;entryDy=0;" parent="6WCOiHOuQoVAaPMAjylX-1" source="1AN4CyRoC1kaTtG0HpXZ-0" target="qbNbrrfpz8vCqyiGNXg7-0" edge="1">
                    <mxGeometry relative="1" as="geometry">
                        <Array as="points">
                            <mxPoint x="-10" y="627"/>
                            <mxPoint x="-10" y="43"/>
                        </Array>
                    </mxGeometry>
                </mxCell>
                <mxCell id="uyhAINpwLUrzwMEfwZNO-40" value="INFO TRANSAKSI" style="edgeLabel;html=1;align=center;verticalAlign=middle;resizable=0;points=[];" parent="uyhAINpwLUrzwMEfwZNO-39" vertex="1" connectable="0">
                    <mxGeometry x="-0.4676" y="3" relative="1" as="geometry">
                        <mxPoint as="offset"/>
                    </mxGeometry>
                </mxCell>
                <mxCell id="1AN4CyRoC1kaTtG0HpXZ-0" value="3&lt;br&gt;PENGOLAHAN&lt;br&gt;TRANSAKSI" style="shape=ellipse;html=1;dashed=0;whitespace=wrap;aspect=fixed;perimeter=ellipsePerimeter;" parent="6WCOiHOuQoVAaPMAjylX-1" vertex="1">
                    <mxGeometry x="410" y="550" width="90" height="90" as="geometry"/>
                </mxCell>
                <mxCell id="uyhAINpwLUrzwMEfwZNO-41" style="edgeStyle=none;html=1;entryX=0;entryY=0.5;entryDx=0;entryDy=0;" parent="6WCOiHOuQoVAaPMAjylX-1" source="1AN4CyRoC1kaTtG0HpXZ-3" target="J5ABlVMaNGSevIPnoZgr-0" edge="1">
                    <mxGeometry relative="1" as="geometry">
                        <Array as="points">
                            <mxPoint x="-110" y="755"/>
                            <mxPoint x="-110" y="205"/>
                        </Array>
                    </mxGeometry>
                </mxCell>
                <mxCell id="uyhAINpwLUrzwMEfwZNO-42" value="INFORMASI LAPORAN" style="edgeLabel;html=1;align=center;verticalAlign=middle;resizable=0;points=[];" parent="uyhAINpwLUrzwMEfwZNO-41" vertex="1" connectable="0">
                    <mxGeometry x="-0.3992" y="-2" relative="1" as="geometry">
                        <mxPoint as="offset"/>
                    </mxGeometry>
                </mxCell>
                <mxCell id="1AN4CyRoC1kaTtG0HpXZ-3" value="4&lt;br&gt;PENGOLAHAN&lt;br&gt;INFORMASI&lt;br&gt;LAPORAN" style="shape=ellipse;html=1;dashed=0;whitespace=wrap;aspect=fixed;perimeter=ellipsePerimeter;" parent="6WCOiHOuQoVAaPMAjylX-1" vertex="1">
                    <mxGeometry x="430" y="710" width="90" height="90" as="geometry"/>
                </mxCell>
                <mxCell id="uyhAINpwLUrzwMEfwZNO-32" style="edgeStyle=none;html=1;exitX=1;exitY=0.25;exitDx=0;exitDy=0;entryX=-0.011;entryY=0.343;entryDx=0;entryDy=0;entryPerimeter=0;" parent="6WCOiHOuQoVAaPMAjylX-1" source="qbNbrrfpz8vCqyiGNXg7-0" target="J5ABlVMaNGSevIPnoZgr-1" edge="1">
                    <mxGeometry relative="1" as="geometry"/>
                </mxCell>
                <mxCell id="uyhAINpwLUrzwMEfwZNO-33" value="DATA PELANGGAN" style="edgeLabel;html=1;align=center;verticalAlign=middle;resizable=0;points=[];" parent="uyhAINpwLUrzwMEfwZNO-32" vertex="1" connectable="0">
                    <mxGeometry x="-0.2728" relative="1" as="geometry">
                        <mxPoint as="offset"/>
                    </mxGeometry>
                </mxCell>
                <mxCell id="uyhAINpwLUrzwMEfwZNO-37" style="edgeStyle=none;html=1;entryX=0;entryY=0.5;entryDx=0;entryDy=0;exitX=0;exitY=0.75;exitDx=0;exitDy=0;" parent="6WCOiHOuQoVAaPMAjylX-1" source="qbNbrrfpz8vCqyiGNXg7-0" target="1AN4CyRoC1kaTtG0HpXZ-0" edge="1">
                    <mxGeometry relative="1" as="geometry">
                        <Array as="points">
                            <mxPoint x="30" y="68"/>
                            <mxPoint x="30" y="595"/>
                        </Array>
                    </mxGeometry>
                </mxCell>
                <mxCell id="uyhAINpwLUrzwMEfwZNO-38" value="DATA TRANSAKSI&lt;br&gt;DATA PAYMENT" style="edgeLabel;html=1;align=center;verticalAlign=middle;resizable=0;points=[];" parent="uyhAINpwLUrzwMEfwZNO-37" vertex="1" connectable="0">
                    <mxGeometry x="0.4336" y="-1" relative="1" as="geometry">
                        <mxPoint as="offset"/>
                    </mxGeometry>
                </mxCell>
                <mxCell id="qbNbrrfpz8vCqyiGNXg7-0" value="PELANGGAN" style="html=1;dashed=0;whitespace=wrap;" parent="6WCOiHOuQoVAaPMAjylX-1" vertex="1">
                    <mxGeometry x="80" y="30" width="100" height="50" as="geometry"/>
                </mxCell>
                <mxCell id="qbNbrrfpz8vCqyiGNXg7-13" style="edgeStyle=none;html=1;exitX=0;exitY=0.5;exitDx=0;exitDy=0;entryX=1;entryY=0.5;entryDx=0;entryDy=0;endArrow=classic;endFill=1;" parent="6WCOiHOuQoVAaPMAjylX-1" source="qbNbrrfpz8vCqyiGNXg7-2" target="J5ABlVMaNGSevIPnoZgr-1" edge="1">
                    <mxGeometry relative="1" as="geometry"/>
                </mxCell>
                <mxCell id="qbNbrrfpz8vCqyiGNXg7-21" value="DATA ADMIN" style="edgeLabel;html=1;align=center;verticalAlign=middle;resizable=0;points=[];" parent="qbNbrrfpz8vCqyiGNXg7-13" vertex="1" connectable="0">
                    <mxGeometry x="0.2622" y="-2" relative="1" as="geometry">
                        <mxPoint x="20" y="2" as="offset"/>
                    </mxGeometry>
                </mxCell>
                <mxCell id="qbNbrrfpz8vCqyiGNXg7-14" style="edgeStyle=none;html=1;exitX=0.5;exitY=1;exitDx=0;exitDy=0;entryX=0.677;entryY=0.003;entryDx=0;entryDy=0;entryPerimeter=0;endArrow=classic;endFill=1;" parent="6WCOiHOuQoVAaPMAjylX-1" source="qbNbrrfpz8vCqyiGNXg7-2" target="J5ABlVMaNGSevIPnoZgr-2" edge="1">
                    <mxGeometry relative="1" as="geometry">
                        <Array as="points">
                            <mxPoint x="760" y="130"/>
                            <mxPoint x="491" y="130"/>
                        </Array>
                    </mxGeometry>
                </mxCell>
                <mxCell id="qbNbrrfpz8vCqyiGNXg7-16" value="DATA ADMIN" style="edgeLabel;html=1;align=center;verticalAlign=middle;resizable=0;points=[];" parent="qbNbrrfpz8vCqyiGNXg7-14" vertex="1" connectable="0">
                    <mxGeometry x="0.33" y="3" relative="1" as="geometry">
                        <mxPoint x="49" as="offset"/>
                    </mxGeometry>
                </mxCell>
                <mxCell id="qbNbrrfpz8vCqyiGNXg7-2" value="ADMIN" style="html=1;dashed=0;whitespace=wrap;shape=partialRectangle;right=0;left=0;" parent="6WCOiHOuQoVAaPMAjylX-1" vertex="1">
                    <mxGeometry x="710" y="40" width="100" height="30" as="geometry"/>
                </mxCell>
                <mxCell id="qbNbrrfpz8vCqyiGNXg7-22" style="edgeStyle=none;html=1;exitX=1;exitY=0.25;exitDx=0;exitDy=0;entryX=1;entryY=0;entryDx=0;entryDy=0;endArrow=classic;endFill=1;" parent="6WCOiHOuQoVAaPMAjylX-1" source="qbNbrrfpz8vCqyiGNXg7-3" target="J5ABlVMaNGSevIPnoZgr-1" edge="1">
                    <mxGeometry relative="1" as="geometry">
                        <Array as="points">
                            <mxPoint x="870" y="178"/>
                            <mxPoint x="870" y="-30"/>
                            <mxPoint x="507" y="-30"/>
                        </Array>
                    </mxGeometry>
                </mxCell>
                <mxCell id="qbNbrrfpz8vCqyiGNXg7-27" value="DATA PELANGGAN" style="edgeLabel;html=1;align=center;verticalAlign=middle;resizable=0;points=[];" parent="qbNbrrfpz8vCqyiGNXg7-22" vertex="1" connectable="0">
                    <mxGeometry x="0.3732" y="1" relative="1" as="geometry">
                        <mxPoint as="offset"/>
                    </mxGeometry>
                </mxCell>
                <mxCell id="wFFzQhJhPdfS1iWcFC7o-1" style="edgeStyle=none;html=1;exitX=0;exitY=0.75;exitDx=0;exitDy=0;entryX=1.003;entryY=0.342;entryDx=0;entryDy=0;entryPerimeter=0;" parent="6WCOiHOuQoVAaPMAjylX-1" source="qbNbrrfpz8vCqyiGNXg7-3" target="J5ABlVMaNGSevIPnoZgr-2" edge="1">
                    <mxGeometry relative="1" as="geometry"/>
                </mxCell>
                <mxCell id="wFFzQhJhPdfS1iWcFC7o-3" value="DATA PELANGGAN" style="edgeLabel;html=1;align=center;verticalAlign=middle;resizable=0;points=[];" parent="wFFzQhJhPdfS1iWcFC7o-1" vertex="1" connectable="0">
                    <mxGeometry x="0.1145" y="-2" relative="1" as="geometry">
                        <mxPoint as="offset"/>
                    </mxGeometry>
                </mxCell>
                <mxCell id="qbNbrrfpz8vCqyiGNXg7-3" value="PELANGGAN" style="html=1;dashed=0;whitespace=wrap;shape=partialRectangle;right=0;left=0;" parent="6WCOiHOuQoVAaPMAjylX-1" vertex="1">
                    <mxGeometry x="710" y="170" width="100" height="30" as="geometry"/>
                </mxCell>
                <mxCell id="uyhAINpwLUrzwMEfwZNO-1" style="edgeStyle=none;html=1;exitX=0;exitY=0.75;exitDx=0;exitDy=0;entryX=0.93;entryY=0.772;entryDx=0;entryDy=0;entryPerimeter=0;" parent="6WCOiHOuQoVAaPMAjylX-1" source="qbNbrrfpz8vCqyiGNXg7-4" target="J5ABlVMaNGSevIPnoZgr-2" edge="1">
                    <mxGeometry relative="1" as="geometry">
                        <Array as="points">
                            <mxPoint x="610" y="253"/>
                            <mxPoint x="610" y="229"/>
                        </Array>
                    </mxGeometry>
                </mxCell>
                <mxCell id="uyhAINpwLUrzwMEfwZNO-12" value="DATA JENIS" style="edgeLabel;html=1;align=center;verticalAlign=middle;resizable=0;points=[];" parent="uyhAINpwLUrzwMEfwZNO-1" vertex="1" connectable="0">
                    <mxGeometry x="0.7" y="-3" relative="1" as="geometry">
                        <mxPoint x="23" as="offset"/>
                    </mxGeometry>
                </mxCell>
                <mxCell id="qbNbrrfpz8vCqyiGNXg7-4" value="JENIS" style="html=1;dashed=0;whitespace=wrap;shape=partialRectangle;right=0;left=0;" parent="6WCOiHOuQoVAaPMAjylX-1" vertex="1">
                    <mxGeometry x="710" y="230" width="100" height="30" as="geometry"/>
                </mxCell>
                <mxCell id="uyhAINpwLUrzwMEfwZNO-3" style="edgeStyle=none;html=1;exitX=0;exitY=0.75;exitDx=0;exitDy=0;entryX=0.738;entryY=0.948;entryDx=0;entryDy=0;entryPerimeter=0;" parent="6WCOiHOuQoVAaPMAjylX-1" source="qbNbrrfpz8vCqyiGNXg7-5" target="J5ABlVMaNGSevIPnoZgr-2" edge="1">
                    <mxGeometry relative="1" as="geometry">
                        <Array as="points">
                            <mxPoint x="530" y="353"/>
                            <mxPoint x="530" y="245"/>
                        </Array>
                    </mxGeometry>
                </mxCell>
                <mxCell id="uyhAINpwLUrzwMEfwZNO-10" value="DATA BARANG" style="edgeLabel;html=1;align=center;verticalAlign=middle;resizable=0;points=[];" parent="uyhAINpwLUrzwMEfwZNO-3" vertex="1" connectable="0">
                    <mxGeometry x="-0.6625" y="-1" relative="1" as="geometry">
                        <mxPoint as="offset"/>
                    </mxGeometry>
                </mxCell>
                <mxCell id="qbNbrrfpz8vCqyiGNXg7-5" value="BARANG" style="html=1;dashed=0;whitespace=wrap;shape=partialRectangle;right=0;left=0;" parent="6WCOiHOuQoVAaPMAjylX-1" vertex="1">
                    <mxGeometry x="710" y="330" width="100" height="30" as="geometry"/>
                </mxCell>
                <mxCell id="uyhAINpwLUrzwMEfwZNO-5" style="edgeStyle=none;html=1;exitX=0;exitY=0.75;exitDx=0;exitDy=0;entryX=0.5;entryY=1;entryDx=0;entryDy=0;" parent="6WCOiHOuQoVAaPMAjylX-1" source="qbNbrrfpz8vCqyiGNXg7-6" target="J5ABlVMaNGSevIPnoZgr-2" edge="1">
                    <mxGeometry relative="1" as="geometry">
                        <Array as="points">
                            <mxPoint x="475" y="463"/>
                        </Array>
                    </mxGeometry>
                </mxCell>
                <mxCell id="uyhAINpwLUrzwMEfwZNO-8" value="DATA KATEGORI TRANSAKSI" style="edgeLabel;html=1;align=center;verticalAlign=middle;resizable=0;points=[];" parent="uyhAINpwLUrzwMEfwZNO-5" vertex="1" connectable="0">
                    <mxGeometry x="-0.3738" y="-2" relative="1" as="geometry">
                        <mxPoint as="offset"/>
                    </mxGeometry>
                </mxCell>
                <mxCell id="qbNbrrfpz8vCqyiGNXg7-6" value="KATEGORI&lt;br&gt;TRANSAKSI" style="html=1;dashed=0;whitespace=wrap;shape=partialRectangle;right=0;left=0;" parent="6WCOiHOuQoVAaPMAjylX-1" vertex="1">
                    <mxGeometry x="710" y="440" width="100" height="30" as="geometry"/>
                </mxCell>
                <mxCell id="uyhAINpwLUrzwMEfwZNO-18" style="edgeStyle=none;html=1;exitX=0;exitY=0.75;exitDx=0;exitDy=0;entryX=0.996;entryY=0.423;entryDx=0;entryDy=0;entryPerimeter=0;" parent="6WCOiHOuQoVAaPMAjylX-1" source="qbNbrrfpz8vCqyiGNXg7-9" target="1AN4CyRoC1kaTtG0HpXZ-0" edge="1">
                    <mxGeometry relative="1" as="geometry"/>
                </mxCell>
                <mxCell id="uyhAINpwLUrzwMEfwZNO-19" value="DATA TRANSAKSI" style="edgeLabel;html=1;align=center;verticalAlign=middle;resizable=0;points=[];" parent="uyhAINpwLUrzwMEfwZNO-18" vertex="1" connectable="0">
                    <mxGeometry x="0.3766" y="-1" relative="1" as="geometry">
                        <mxPoint x="12" y="3" as="offset"/>
                    </mxGeometry>
                </mxCell>
                <mxCell id="uyhAINpwLUrzwMEfwZNO-26" style="edgeStyle=none;html=1;entryX=1;entryY=1;entryDx=0;entryDy=0;" parent="6WCOiHOuQoVAaPMAjylX-1" source="qbNbrrfpz8vCqyiGNXg7-9" target="1AN4CyRoC1kaTtG0HpXZ-3" edge="1">
                    <mxGeometry relative="1" as="geometry">
                        <Array as="points">
                            <mxPoint x="870" y="575"/>
                            <mxPoint x="870" y="787"/>
                        </Array>
                    </mxGeometry>
                </mxCell>
                <mxCell id="uyhAINpwLUrzwMEfwZNO-27" value="DATA TRANSAKSI" style="edgeLabel;html=1;align=center;verticalAlign=middle;resizable=0;points=[];" parent="uyhAINpwLUrzwMEfwZNO-26" vertex="1" connectable="0">
                    <mxGeometry x="0.5223" y="2" relative="1" as="geometry">
                        <mxPoint as="offset"/>
                    </mxGeometry>
                </mxCell>
                <mxCell id="qbNbrrfpz8vCqyiGNXg7-9" value="STATUS&lt;br&gt;TRANSAKSI" style="html=1;dashed=0;whitespace=wrap;shape=partialRectangle;right=0;left=0;" parent="6WCOiHOuQoVAaPMAjylX-1" vertex="1">
                    <mxGeometry x="710" y="560" width="100" height="30" as="geometry"/>
                </mxCell>
                <mxCell id="uyhAINpwLUrzwMEfwZNO-22" style="edgeStyle=none;html=1;exitX=0.75;exitY=0;exitDx=0;exitDy=0;entryX=1.028;entryY=0.695;entryDx=0;entryDy=0;entryPerimeter=0;" parent="6WCOiHOuQoVAaPMAjylX-1" source="uyhAINpwLUrzwMEfwZNO-15" target="1AN4CyRoC1kaTtG0HpXZ-0" edge="1">
                    <mxGeometry relative="1" as="geometry">
                        <Array as="points">
                            <mxPoint x="775" y="610"/>
                        </Array>
                    </mxGeometry>
                </mxCell>
                <mxCell id="uyhAINpwLUrzwMEfwZNO-23" value="DATA TRANSAKSI&lt;br&gt;DATA PAYMENT" style="edgeLabel;html=1;align=center;verticalAlign=middle;resizable=0;points=[];" parent="uyhAINpwLUrzwMEfwZNO-22" vertex="1" connectable="0">
                    <mxGeometry x="0.0728" y="-4" relative="1" as="geometry">
                        <mxPoint as="offset"/>
                    </mxGeometry>
                </mxCell>
                <mxCell id="uyhAINpwLUrzwMEfwZNO-24" style="edgeStyle=none;html=1;" parent="6WCOiHOuQoVAaPMAjylX-1" source="uyhAINpwLUrzwMEfwZNO-15" target="1AN4CyRoC1kaTtG0HpXZ-3" edge="1">
                    <mxGeometry relative="1" as="geometry">
                        <Array as="points">
                            <mxPoint x="750" y="755"/>
                        </Array>
                    </mxGeometry>
                </mxCell>
                <mxCell id="uyhAINpwLUrzwMEfwZNO-25" value="DATA TRANSAKSI" style="edgeLabel;html=1;align=center;verticalAlign=middle;resizable=0;points=[];" parent="uyhAINpwLUrzwMEfwZNO-24" vertex="1" connectable="0">
                    <mxGeometry x="-0.0787" y="2" relative="1" as="geometry">
                        <mxPoint as="offset"/>
                    </mxGeometry>
                </mxCell>
                <mxCell id="uyhAINpwLUrzwMEfwZNO-15" value="TRANSAKSI" style="html=1;dashed=0;whitespace=wrap;shape=partialRectangle;right=0;left=0;" parent="6WCOiHOuQoVAaPMAjylX-1" vertex="1">
                    <mxGeometry x="700" y="700" width="100" height="30" as="geometry"/>
                </mxCell>
            </root>
        </mxGraphModel>
    </diagram>
    <diagram id="mtSTvRwifSQiY-va-4TD" name="DAD 2 PROSES 2">
        <mxGraphModel dx="1922" dy="818" grid="1" gridSize="10" guides="1" tooltips="1" connect="1" arrows="1" fold="1" page="1" pageScale="1" pageWidth="850" pageHeight="1100" math="0" shadow="0">
            <root>
                <mxCell id="SewjUp_6X1PW-8esw9Au-0"/>
                <mxCell id="SewjUp_6X1PW-8esw9Au-1" parent="SewjUp_6X1PW-8esw9Au-0"/>
                <mxCell id="xYEk3np2Gc2WcgvdPwJu-4" style="edgeStyle=none;html=1;entryX=1;entryY=0.75;entryDx=0;entryDy=0;" parent="SewjUp_6X1PW-8esw9Au-1" target="xYEk3np2Gc2WcgvdPwJu-0" edge="1">
                    <mxGeometry relative="1" as="geometry">
                        <mxPoint x="378" y="298" as="sourcePoint"/>
                    </mxGeometry>
                </mxCell>
                <mxCell id="xYEk3np2Gc2WcgvdPwJu-5" value="IINFO AUTH" style="edgeLabel;html=1;align=center;verticalAlign=middle;resizable=0;points=[];" parent="xYEk3np2Gc2WcgvdPwJu-4" vertex="1" connectable="0">
                    <mxGeometry x="0.4452" relative="1" as="geometry">
                        <mxPoint as="offset"/>
                    </mxGeometry>
                </mxCell>
                <mxCell id="xYEk3np2Gc2WcgvdPwJu-24" style="edgeStyle=none;html=1;entryX=0.75;entryY=0;entryDx=0;entryDy=0;" parent="SewjUp_6X1PW-8esw9Au-1" source="LrwikY4hTAgA8ko1fzYT-0" target="xYEk3np2Gc2WcgvdPwJu-1" edge="1">
                    <mxGeometry relative="1" as="geometry">
                        <Array as="points">
                            <mxPoint x="425" y="440"/>
                            <mxPoint x="155" y="440"/>
                        </Array>
                    </mxGeometry>
                </mxCell>
                <mxCell id="xYEk3np2Gc2WcgvdPwJu-25" value="INFO AUTH" style="edgeLabel;html=1;align=center;verticalAlign=middle;resizable=0;points=[];" parent="xYEk3np2Gc2WcgvdPwJu-24" vertex="1" connectable="0">
                    <mxGeometry x="0.2803" y="-2" relative="1" as="geometry">
                        <mxPoint as="offset"/>
                    </mxGeometry>
                </mxCell>
                <mxCell id="LrwikY4hTAgA8ko1fzYT-0" value="2.1&lt;br&gt;MELAKUKAN&lt;br&gt;LOGIN" style="shape=ellipse;html=1;dashed=0;whitespace=wrap;aspect=fixed;perimeter=ellipsePerimeter;" parent="SewjUp_6X1PW-8esw9Au-1" vertex="1">
                    <mxGeometry x="380" y="240" width="90" height="90" as="geometry"/>
                </mxCell>
                <mxCell id="xYEk3np2Gc2WcgvdPwJu-7" style="edgeStyle=none;html=1;exitX=0.075;exitY=0.769;exitDx=0;exitDy=0;entryX=1;entryY=0.75;entryDx=0;entryDy=0;exitPerimeter=0;" parent="SewjUp_6X1PW-8esw9Au-1" source="LrwikY4hTAgA8ko1fzYT-1" target="xYEk3np2Gc2WcgvdPwJu-1" edge="1">
                    <mxGeometry relative="1" as="geometry"/>
                </mxCell>
                <mxCell id="xYEk3np2Gc2WcgvdPwJu-11" value="INFO PELANGGAN" style="edgeLabel;html=1;align=center;verticalAlign=middle;resizable=0;points=[];" parent="xYEk3np2Gc2WcgvdPwJu-7" vertex="1" connectable="0">
                    <mxGeometry x="0.3717" y="3" relative="1" as="geometry">
                        <mxPoint x="35" y="-1" as="offset"/>
                    </mxGeometry>
                </mxCell>
                <mxCell id="xYEk3np2Gc2WcgvdPwJu-20" style="edgeStyle=none;html=1;entryX=0;entryY=0.25;entryDx=0;entryDy=0;" parent="SewjUp_6X1PW-8esw9Au-1" source="LrwikY4hTAgA8ko1fzYT-1" target="xYEk3np2Gc2WcgvdPwJu-17" edge="1">
                    <mxGeometry relative="1" as="geometry"/>
                </mxCell>
                <mxCell id="xYEk3np2Gc2WcgvdPwJu-22" value="DATA PELANGGAN" style="edgeLabel;html=1;align=center;verticalAlign=middle;resizable=0;points=[];" parent="xYEk3np2Gc2WcgvdPwJu-20" vertex="1" connectable="0">
                    <mxGeometry x="-0.3864" relative="1" as="geometry">
                        <mxPoint x="17" as="offset"/>
                    </mxGeometry>
                </mxCell>
                <mxCell id="LrwikY4hTAgA8ko1fzYT-1" value="2.1&lt;br&gt;REGISTER" style="shape=ellipse;html=1;dashed=0;whitespace=wrap;aspect=fixed;perimeter=ellipsePerimeter;" parent="SewjUp_6X1PW-8esw9Au-1" vertex="1">
                    <mxGeometry x="380" y="480" width="90" height="90" as="geometry"/>
                </mxCell>
                <mxCell id="xYEk3np2Gc2WcgvdPwJu-2" style="edgeStyle=none;html=1;exitX=1;exitY=0.25;exitDx=0;exitDy=0;entryX=0.011;entryY=0.348;entryDx=0;entryDy=0;entryPerimeter=0;" parent="SewjUp_6X1PW-8esw9Au-1" source="xYEk3np2Gc2WcgvdPwJu-0" target="LrwikY4hTAgA8ko1fzYT-0" edge="1">
                    <mxGeometry relative="1" as="geometry"/>
                </mxCell>
                <mxCell id="xYEk3np2Gc2WcgvdPwJu-3" value="DATA ADMIN" style="edgeLabel;html=1;align=center;verticalAlign=middle;resizable=0;points=[];" parent="xYEk3np2Gc2WcgvdPwJu-2" vertex="1" connectable="0">
                    <mxGeometry x="-0.3465" y="1" relative="1" as="geometry">
                        <mxPoint as="offset"/>
                    </mxGeometry>
                </mxCell>
                <mxCell id="xYEk3np2Gc2WcgvdPwJu-0" value="ADMIN" style="html=1;dashed=0;whitespace=wrap;" parent="SewjUp_6X1PW-8esw9Au-1" vertex="1">
                    <mxGeometry x="70" y="260" width="100" height="50" as="geometry"/>
                </mxCell>
                <mxCell id="xYEk3np2Gc2WcgvdPwJu-6" style="edgeStyle=none;html=1;exitX=1;exitY=0.25;exitDx=0;exitDy=0;" parent="SewjUp_6X1PW-8esw9Au-1" source="xYEk3np2Gc2WcgvdPwJu-1" edge="1">
                    <mxGeometry relative="1" as="geometry">
                        <mxPoint x="380" y="523" as="targetPoint"/>
                    </mxGeometry>
                </mxCell>
                <mxCell id="xYEk3np2Gc2WcgvdPwJu-10" value="DATA PELANGGAN" style="edgeLabel;html=1;align=center;verticalAlign=middle;resizable=0;points=[];" parent="xYEk3np2Gc2WcgvdPwJu-6" vertex="1" connectable="0">
                    <mxGeometry x="0.4392" y="4" relative="1" as="geometry">
                        <mxPoint x="-44" as="offset"/>
                    </mxGeometry>
                </mxCell>
                <mxCell id="xYEk3np2Gc2WcgvdPwJu-8" style="edgeStyle=none;html=1;exitX=0.25;exitY=0;exitDx=0;exitDy=0;entryX=0;entryY=1;entryDx=0;entryDy=0;" parent="SewjUp_6X1PW-8esw9Au-1" source="xYEk3np2Gc2WcgvdPwJu-1" target="LrwikY4hTAgA8ko1fzYT-0" edge="1">
                    <mxGeometry relative="1" as="geometry">
                        <Array as="points">
                            <mxPoint x="105" y="400"/>
                            <mxPoint x="393" y="400"/>
                        </Array>
                    </mxGeometry>
                </mxCell>
                <mxCell id="xYEk3np2Gc2WcgvdPwJu-12" value="DATA PELANGGAN" style="edgeLabel;html=1;align=center;verticalAlign=middle;resizable=0;points=[];" parent="xYEk3np2Gc2WcgvdPwJu-8" vertex="1" connectable="0">
                    <mxGeometry x="0.1424" y="-2" relative="1" as="geometry">
                        <mxPoint as="offset"/>
                    </mxGeometry>
                </mxCell>
                <mxCell id="xYEk3np2Gc2WcgvdPwJu-1" value="PELANGGAN" style="html=1;dashed=0;whitespace=wrap;" parent="SewjUp_6X1PW-8esw9Au-1" vertex="1">
                    <mxGeometry x="80" y="510" width="100" height="50" as="geometry"/>
                </mxCell>
                <mxCell id="xYEk3np2Gc2WcgvdPwJu-15" style="edgeStyle=none;html=1;exitX=0;exitY=0.5;exitDx=0;exitDy=0;entryX=1;entryY=0.5;entryDx=0;entryDy=0;" parent="SewjUp_6X1PW-8esw9Au-1" source="xYEk3np2Gc2WcgvdPwJu-14" target="LrwikY4hTAgA8ko1fzYT-0" edge="1">
                    <mxGeometry relative="1" as="geometry"/>
                </mxCell>
                <mxCell id="xYEk3np2Gc2WcgvdPwJu-16" value="DATA ADMIN" style="edgeLabel;html=1;align=center;verticalAlign=middle;resizable=0;points=[];" parent="xYEk3np2Gc2WcgvdPwJu-15" vertex="1" connectable="0">
                    <mxGeometry x="0.4676" y="1" relative="1" as="geometry">
                        <mxPoint x="30" y="-1" as="offset"/>
                    </mxGeometry>
                </mxCell>
                <mxCell id="xYEk3np2Gc2WcgvdPwJu-14" value="ADMIN" style="html=1;dashed=0;whitespace=wrap;shape=partialRectangle;right=0;left=0;" parent="SewjUp_6X1PW-8esw9Au-1" vertex="1">
                    <mxGeometry x="620" y="270" width="100" height="30" as="geometry"/>
                </mxCell>
                <mxCell id="xYEk3np2Gc2WcgvdPwJu-18" style="edgeStyle=none;html=1;entryX=1;entryY=1;entryDx=0;entryDy=0;" parent="SewjUp_6X1PW-8esw9Au-1" source="xYEk3np2Gc2WcgvdPwJu-17" target="LrwikY4hTAgA8ko1fzYT-0" edge="1">
                    <mxGeometry relative="1" as="geometry">
                        <Array as="points">
                            <mxPoint x="660" y="430"/>
                            <mxPoint x="460" y="430"/>
                        </Array>
                    </mxGeometry>
                </mxCell>
                <mxCell id="xYEk3np2Gc2WcgvdPwJu-19" value="DATA PELANGGAN" style="edgeLabel;html=1;align=center;verticalAlign=middle;resizable=0;points=[];" parent="xYEk3np2Gc2WcgvdPwJu-18" vertex="1" connectable="0">
                    <mxGeometry x="0.0583" y="-3" relative="1" as="geometry">
                        <mxPoint as="offset"/>
                    </mxGeometry>
                </mxCell>
                <mxCell id="xYEk3np2Gc2WcgvdPwJu-21" style="edgeStyle=none;html=1;exitX=0;exitY=0.75;exitDx=0;exitDy=0;entryX=1.019;entryY=0.689;entryDx=0;entryDy=0;entryPerimeter=0;" parent="SewjUp_6X1PW-8esw9Au-1" source="xYEk3np2Gc2WcgvdPwJu-17" target="LrwikY4hTAgA8ko1fzYT-1" edge="1">
                    <mxGeometry relative="1" as="geometry"/>
                </mxCell>
                <mxCell id="xYEk3np2Gc2WcgvdPwJu-23" value="DATA PELANGGAN" style="edgeLabel;html=1;align=center;verticalAlign=middle;resizable=0;points=[];" parent="xYEk3np2Gc2WcgvdPwJu-21" vertex="1" connectable="0">
                    <mxGeometry x="0.317" relative="1" as="geometry">
                        <mxPoint x="21" as="offset"/>
                    </mxGeometry>
                </mxCell>
                <mxCell id="xYEk3np2Gc2WcgvdPwJu-17" value="PELANGGAN" style="html=1;dashed=0;whitespace=wrap;shape=partialRectangle;right=0;left=0;" parent="SewjUp_6X1PW-8esw9Au-1" vertex="1">
                    <mxGeometry x="610" y="520" width="100" height="30" as="geometry"/>
                </mxCell>
            </root>
        </mxGraphModel>
    </diagram>
    <diagram id="HArWWt2g3qlRdIk-Bjh9" name="DAD 2 PROSES 2">
        <mxGraphModel dx="1922" dy="818" grid="1" gridSize="10" guides="1" tooltips="1" connect="1" arrows="1" fold="1" page="1" pageScale="1" pageWidth="850" pageHeight="1100" math="0" shadow="0">
            <root>
                <mxCell id="GZYo5w1X7TxI_vXJRAY3-0"/>
                <mxCell id="GZYo5w1X7TxI_vXJRAY3-1" parent="GZYo5w1X7TxI_vXJRAY3-0"/>
                <mxCell id="FSBIamKQacQ-9uDwm2ym-4" style="edgeStyle=none;html=1;exitX=0;exitY=0.5;exitDx=0;exitDy=0;entryX=0.25;entryY=0;entryDx=0;entryDy=0;" parent="GZYo5w1X7TxI_vXJRAY3-1" source="Ry_C7pp4amCYCUyZnQRH-0" target="FSBIamKQacQ-9uDwm2ym-2" edge="1">
                    <mxGeometry relative="1" as="geometry">
                        <Array as="points">
                            <mxPoint x="95" y="285"/>
                        </Array>
                    </mxGeometry>
                </mxCell>
                <mxCell id="FSBIamKQacQ-9uDwm2ym-39" value="INFO ADMIN" style="edgeLabel;html=1;align=center;verticalAlign=middle;resizable=0;points=[];" parent="FSBIamKQacQ-9uDwm2ym-4" vertex="1" connectable="0">
                    <mxGeometry x="-0.2305" y="-3" relative="1" as="geometry">
                        <mxPoint as="offset"/>
                    </mxGeometry>
                </mxCell>
                <mxCell id="FSBIamKQacQ-9uDwm2ym-14" style="edgeStyle=none;html=1;exitX=1.051;exitY=0.588;exitDx=0;exitDy=0;entryX=0;entryY=0.75;entryDx=0;entryDy=0;exitPerimeter=0;" parent="GZYo5w1X7TxI_vXJRAY3-1" source="Ry_C7pp4amCYCUyZnQRH-0" target="Ew0xXhB7kHNw2vGrd_x3-0" edge="1">
                    <mxGeometry relative="1" as="geometry">
                        <mxPoint x="490" y="290" as="targetPoint"/>
                    </mxGeometry>
                </mxCell>
                <mxCell id="FSBIamKQacQ-9uDwm2ym-23" value="DATA ADMIN" style="edgeLabel;html=1;align=center;verticalAlign=middle;resizable=0;points=[];" parent="FSBIamKQacQ-9uDwm2ym-14" vertex="1" connectable="0">
                    <mxGeometry x="-0.1592" y="-3" relative="1" as="geometry">
                        <mxPoint as="offset"/>
                    </mxGeometry>
                </mxCell>
                <mxCell id="Ry_C7pp4amCYCUyZnQRH-0" value="2.1&lt;br&gt;PENGOLAHAN&lt;br&gt;ADMIN" style="shape=ellipse;html=1;dashed=0;whitespace=wrap;aspect=fixed;perimeter=ellipsePerimeter;" parent="GZYo5w1X7TxI_vXJRAY3-1" vertex="1">
                    <mxGeometry x="380" y="240" width="90" height="90" as="geometry"/>
                </mxCell>
                <mxCell id="FSBIamKQacQ-9uDwm2ym-6" style="edgeStyle=none;html=1;exitX=0;exitY=0.5;exitDx=0;exitDy=0;entryX=1;entryY=0;entryDx=0;entryDy=0;" parent="GZYo5w1X7TxI_vXJRAY3-1" source="Ry_C7pp4amCYCUyZnQRH-2" target="FSBIamKQacQ-9uDwm2ym-2" edge="1">
                    <mxGeometry relative="1" as="geometry">
                        <Array as="points">
                            <mxPoint x="170" y="415"/>
                        </Array>
                    </mxGeometry>
                </mxCell>
                <mxCell id="FSBIamKQacQ-9uDwm2ym-37" value="INFO JENIS" style="edgeLabel;html=1;align=center;verticalAlign=middle;resizable=0;points=[];" parent="FSBIamKQacQ-9uDwm2ym-6" vertex="1" connectable="0">
                    <mxGeometry x="0.0645" y="1" relative="1" as="geometry">
                        <mxPoint as="offset"/>
                    </mxGeometry>
                </mxCell>
                <mxCell id="FSBIamKQacQ-9uDwm2ym-17" style="edgeStyle=none;html=1;entryX=0;entryY=0.75;entryDx=0;entryDy=0;" parent="GZYo5w1X7TxI_vXJRAY3-1" source="Ry_C7pp4amCYCUyZnQRH-2" target="Ew0xXhB7kHNw2vGrd_x3-1" edge="1">
                    <mxGeometry relative="1" as="geometry"/>
                </mxCell>
                <mxCell id="FSBIamKQacQ-9uDwm2ym-27" value="DATA JENIS" style="edgeLabel;html=1;align=center;verticalAlign=middle;resizable=0;points=[];" parent="FSBIamKQacQ-9uDwm2ym-17" vertex="1" connectable="0">
                    <mxGeometry x="-0.4632" y="1" relative="1" as="geometry">
                        <mxPoint x="17" y="2" as="offset"/>
                    </mxGeometry>
                </mxCell>
                <mxCell id="Ry_C7pp4amCYCUyZnQRH-2" value="2.2&lt;br&gt;PENGOLAHAN&lt;br&gt;JENIS" style="shape=ellipse;html=1;dashed=0;whitespace=wrap;aspect=fixed;perimeter=ellipsePerimeter;" parent="GZYo5w1X7TxI_vXJRAY3-1" vertex="1">
                    <mxGeometry x="380" y="370" width="90" height="90" as="geometry"/>
                </mxCell>
                <mxCell id="FSBIamKQacQ-9uDwm2ym-12" style="edgeStyle=none;html=1;exitX=0;exitY=0.5;exitDx=0;exitDy=0;entryX=0.75;entryY=1;entryDx=0;entryDy=0;" parent="GZYo5w1X7TxI_vXJRAY3-1" source="Ry_C7pp4amCYCUyZnQRH-3" target="FSBIamKQacQ-9uDwm2ym-2" edge="1">
                    <mxGeometry relative="1" as="geometry">
                        <Array as="points">
                            <mxPoint x="145" y="550"/>
                        </Array>
                    </mxGeometry>
                </mxCell>
                <mxCell id="FSBIamKQacQ-9uDwm2ym-35" value="INFO PELANGGAN" style="edgeLabel;html=1;align=center;verticalAlign=middle;resizable=0;points=[];" parent="FSBIamKQacQ-9uDwm2ym-12" vertex="1" connectable="0">
                    <mxGeometry x="-0.0567" y="4" relative="1" as="geometry">
                        <mxPoint as="offset"/>
                    </mxGeometry>
                </mxCell>
                <mxCell id="FSBIamKQacQ-9uDwm2ym-19" style="edgeStyle=none;html=1;entryX=0;entryY=0.75;entryDx=0;entryDy=0;exitX=1.019;exitY=0.603;exitDx=0;exitDy=0;exitPerimeter=0;" parent="GZYo5w1X7TxI_vXJRAY3-1" source="Ry_C7pp4amCYCUyZnQRH-3" target="FSBIamKQacQ-9uDwm2ym-0" edge="1">
                    <mxGeometry relative="1" as="geometry"/>
                </mxCell>
                <mxCell id="FSBIamKQacQ-9uDwm2ym-29" value="DATA BARANG" style="edgeLabel;html=1;align=center;verticalAlign=middle;resizable=0;points=[];" parent="FSBIamKQacQ-9uDwm2ym-19" vertex="1" connectable="0">
                    <mxGeometry x="-0.1654" relative="1" as="geometry">
                        <mxPoint as="offset"/>
                    </mxGeometry>
                </mxCell>
                <mxCell id="Ry_C7pp4amCYCUyZnQRH-3" value="2.3&lt;br&gt;PENGOLAHAN&lt;br&gt;BARANG" style="shape=ellipse;html=1;dashed=0;whitespace=wrap;aspect=fixed;perimeter=ellipsePerimeter;" parent="GZYo5w1X7TxI_vXJRAY3-1" vertex="1">
                    <mxGeometry x="380" y="505" width="90" height="90" as="geometry"/>
                </mxCell>
                <mxCell id="FSBIamKQacQ-9uDwm2ym-11" style="edgeStyle=none;html=1;exitX=0;exitY=0.5;exitDx=0;exitDy=0;entryX=0.411;entryY=1.042;entryDx=0;entryDy=0;entryPerimeter=0;" parent="GZYo5w1X7TxI_vXJRAY3-1" source="Ry_C7pp4amCYCUyZnQRH-4" target="FSBIamKQacQ-9uDwm2ym-2" edge="1">
                    <mxGeometry relative="1" as="geometry">
                        <Array as="points">
                            <mxPoint x="111" y="705"/>
                        </Array>
                    </mxGeometry>
                </mxCell>
                <mxCell id="FSBIamKQacQ-9uDwm2ym-34" value="INFO PELANGGAN" style="edgeLabel;html=1;align=center;verticalAlign=middle;resizable=0;points=[];" parent="FSBIamKQacQ-9uDwm2ym-11" vertex="1" connectable="0">
                    <mxGeometry x="-0.239" y="-3" relative="1" as="geometry">
                        <mxPoint as="offset"/>
                    </mxGeometry>
                </mxCell>
                <mxCell id="FSBIamKQacQ-9uDwm2ym-21" style="edgeStyle=none;html=1;exitX=1;exitY=0.5;exitDx=0;exitDy=0;entryX=0;entryY=0.75;entryDx=0;entryDy=0;" parent="GZYo5w1X7TxI_vXJRAY3-1" source="Ry_C7pp4amCYCUyZnQRH-4" target="FSBIamKQacQ-9uDwm2ym-1" edge="1">
                    <mxGeometry relative="1" as="geometry"/>
                </mxCell>
                <mxCell id="FSBIamKQacQ-9uDwm2ym-31" value="DATA PELANGGAN" style="edgeLabel;html=1;align=center;verticalAlign=middle;resizable=0;points=[];" parent="FSBIamKQacQ-9uDwm2ym-21" vertex="1" connectable="0">
                    <mxGeometry x="-0.2259" relative="1" as="geometry">
                        <mxPoint as="offset"/>
                    </mxGeometry>
                </mxCell>
                <mxCell id="Ry_C7pp4amCYCUyZnQRH-4" value="2.4&lt;br&gt;PENGOLAHAN&lt;br&gt;PELANGGAN" style="shape=ellipse;html=1;dashed=0;whitespace=wrap;aspect=fixed;perimeter=ellipsePerimeter;" parent="GZYo5w1X7TxI_vXJRAY3-1" vertex="1">
                    <mxGeometry x="380" y="660" width="90" height="90" as="geometry"/>
                </mxCell>
                <mxCell id="FSBIamKQacQ-9uDwm2ym-13" style="edgeStyle=none;html=1;exitX=0;exitY=0.25;exitDx=0;exitDy=0;entryX=0.987;entryY=0.364;entryDx=0;entryDy=0;entryPerimeter=0;" parent="GZYo5w1X7TxI_vXJRAY3-1" source="Ew0xXhB7kHNw2vGrd_x3-0" target="Ry_C7pp4amCYCUyZnQRH-0" edge="1">
                    <mxGeometry relative="1" as="geometry"/>
                </mxCell>
                <mxCell id="FSBIamKQacQ-9uDwm2ym-22" value="DATA ADMIN" style="edgeLabel;html=1;align=center;verticalAlign=middle;resizable=0;points=[];" parent="FSBIamKQacQ-9uDwm2ym-13" vertex="1" connectable="0">
                    <mxGeometry x="0.4034" y="-1" relative="1" as="geometry">
                        <mxPoint x="23" as="offset"/>
                    </mxGeometry>
                </mxCell>
                <mxCell id="Ew0xXhB7kHNw2vGrd_x3-0" value="ADMIN" style="html=1;dashed=0;whitespace=wrap;shape=partialRectangle;right=0;left=0;" parent="GZYo5w1X7TxI_vXJRAY3-1" vertex="1">
                    <mxGeometry x="630" y="270" width="100" height="30" as="geometry"/>
                </mxCell>
                <mxCell id="FSBIamKQacQ-9uDwm2ym-16" style="edgeStyle=none;html=1;exitX=0;exitY=0.25;exitDx=0;exitDy=0;entryX=0.971;entryY=0.327;entryDx=0;entryDy=0;entryPerimeter=0;" parent="GZYo5w1X7TxI_vXJRAY3-1" source="Ew0xXhB7kHNw2vGrd_x3-1" target="Ry_C7pp4amCYCUyZnQRH-2" edge="1">
                    <mxGeometry relative="1" as="geometry"/>
                </mxCell>
                <mxCell id="FSBIamKQacQ-9uDwm2ym-26" value="DATA JENIS" style="edgeLabel;html=1;align=center;verticalAlign=middle;resizable=0;points=[];" parent="FSBIamKQacQ-9uDwm2ym-16" vertex="1" connectable="0">
                    <mxGeometry x="0.4396" y="-2" relative="1" as="geometry">
                        <mxPoint x="17" as="offset"/>
                    </mxGeometry>
                </mxCell>
                <mxCell id="Ew0xXhB7kHNw2vGrd_x3-1" value="JENIS" style="html=1;dashed=0;whitespace=wrap;shape=partialRectangle;right=0;left=0;" parent="GZYo5w1X7TxI_vXJRAY3-1" vertex="1">
                    <mxGeometry x="630" y="390" width="100" height="30" as="geometry"/>
                </mxCell>
                <mxCell id="FSBIamKQacQ-9uDwm2ym-18" style="edgeStyle=none;html=1;exitX=0;exitY=0.25;exitDx=0;exitDy=0;entryX=1;entryY=0.389;entryDx=0;entryDy=0;entryPerimeter=0;" parent="GZYo5w1X7TxI_vXJRAY3-1" source="FSBIamKQacQ-9uDwm2ym-0" target="Ry_C7pp4amCYCUyZnQRH-3" edge="1">
                    <mxGeometry relative="1" as="geometry"/>
                </mxCell>
                <mxCell id="FSBIamKQacQ-9uDwm2ym-28" value="DATA BARANG" style="edgeLabel;html=1;align=center;verticalAlign=middle;resizable=0;points=[];" parent="FSBIamKQacQ-9uDwm2ym-18" vertex="1" connectable="0">
                    <mxGeometry x="0.2002" y="3" relative="1" as="geometry">
                        <mxPoint x="12" y="-4" as="offset"/>
                    </mxGeometry>
                </mxCell>
                <mxCell id="FSBIamKQacQ-9uDwm2ym-0" value="BARANG" style="html=1;dashed=0;whitespace=wrap;shape=partialRectangle;right=0;left=0;" parent="GZYo5w1X7TxI_vXJRAY3-1" vertex="1">
                    <mxGeometry x="640" y="535" width="100" height="30" as="geometry"/>
                </mxCell>
                <mxCell id="FSBIamKQacQ-9uDwm2ym-20" style="edgeStyle=none;html=1;exitX=0;exitY=0.25;exitDx=0;exitDy=0;entryX=0.987;entryY=0.321;entryDx=0;entryDy=0;entryPerimeter=0;" parent="GZYo5w1X7TxI_vXJRAY3-1" source="FSBIamKQacQ-9uDwm2ym-1" target="Ry_C7pp4amCYCUyZnQRH-4" edge="1">
                    <mxGeometry relative="1" as="geometry"/>
                </mxCell>
                <mxCell id="FSBIamKQacQ-9uDwm2ym-30" value="DATA PELANGGAN" style="edgeLabel;html=1;align=center;verticalAlign=middle;resizable=0;points=[];" parent="FSBIamKQacQ-9uDwm2ym-20" vertex="1" connectable="0">
                    <mxGeometry x="0.2046" y="1" relative="1" as="geometry">
                        <mxPoint x="7" as="offset"/>
                    </mxGeometry>
                </mxCell>
                <mxCell id="FSBIamKQacQ-9uDwm2ym-1" value="PELANGGAN" style="html=1;dashed=0;whitespace=wrap;shape=partialRectangle;right=0;left=0;" parent="GZYo5w1X7TxI_vXJRAY3-1" vertex="1">
                    <mxGeometry x="630" y="680" width="100" height="30" as="geometry"/>
                </mxCell>
                <mxCell id="FSBIamKQacQ-9uDwm2ym-3" style="edgeStyle=none;html=1;exitX=0;exitY=0;exitDx=0;exitDy=0;entryX=0;entryY=0;entryDx=0;entryDy=0;" parent="GZYo5w1X7TxI_vXJRAY3-1" source="FSBIamKQacQ-9uDwm2ym-2" target="Ry_C7pp4amCYCUyZnQRH-0" edge="1">
                    <mxGeometry relative="1" as="geometry">
                        <Array as="points">
                            <mxPoint x="70" y="253"/>
                        </Array>
                    </mxGeometry>
                </mxCell>
                <mxCell id="FSBIamKQacQ-9uDwm2ym-40" value="DATA ADMIN" style="edgeLabel;html=1;align=center;verticalAlign=middle;resizable=0;points=[];" parent="FSBIamKQacQ-9uDwm2ym-3" vertex="1" connectable="0">
                    <mxGeometry x="0.325" y="1" relative="1" as="geometry">
                        <mxPoint as="offset"/>
                    </mxGeometry>
                </mxCell>
                <mxCell id="FSBIamKQacQ-9uDwm2ym-5" style="edgeStyle=none;html=1;exitX=0.75;exitY=0;exitDx=0;exitDy=0;entryX=0;entryY=0;entryDx=0;entryDy=0;" parent="GZYo5w1X7TxI_vXJRAY3-1" source="FSBIamKQacQ-9uDwm2ym-2" target="Ry_C7pp4amCYCUyZnQRH-2" edge="1">
                    <mxGeometry relative="1" as="geometry">
                        <Array as="points">
                            <mxPoint x="145" y="383"/>
                        </Array>
                    </mxGeometry>
                </mxCell>
                <mxCell id="FSBIamKQacQ-9uDwm2ym-38" value="DATA JENIS" style="edgeLabel;html=1;align=center;verticalAlign=middle;resizable=0;points=[];" parent="FSBIamKQacQ-9uDwm2ym-5" vertex="1" connectable="0">
                    <mxGeometry x="-0.0572" relative="1" as="geometry">
                        <mxPoint as="offset"/>
                    </mxGeometry>
                </mxCell>
                <mxCell id="FSBIamKQacQ-9uDwm2ym-7" style="edgeStyle=none;html=1;exitX=1;exitY=1;exitDx=0;exitDy=0;entryX=0;entryY=0;entryDx=0;entryDy=0;" parent="GZYo5w1X7TxI_vXJRAY3-1" source="FSBIamKQacQ-9uDwm2ym-2" target="Ry_C7pp4amCYCUyZnQRH-3" edge="1">
                    <mxGeometry relative="1" as="geometry">
                        <Array as="points">
                            <mxPoint x="170" y="518"/>
                        </Array>
                    </mxGeometry>
                </mxCell>
                <mxCell id="FSBIamKQacQ-9uDwm2ym-36" value="DATA BARANG" style="edgeLabel;html=1;align=center;verticalAlign=middle;resizable=0;points=[];" parent="FSBIamKQacQ-9uDwm2ym-7" vertex="1" connectable="0">
                    <mxGeometry x="-0.2384" y="-2" relative="1" as="geometry">
                        <mxPoint as="offset"/>
                    </mxGeometry>
                </mxCell>
                <mxCell id="FSBIamKQacQ-9uDwm2ym-9" style="edgeStyle=none;html=1;entryX=0;entryY=0;entryDx=0;entryDy=0;" parent="GZYo5w1X7TxI_vXJRAY3-1" target="Ry_C7pp4amCYCUyZnQRH-4" edge="1">
                    <mxGeometry relative="1" as="geometry">
                        <mxPoint x="130" y="500" as="sourcePoint"/>
                        <Array as="points">
                            <mxPoint x="130" y="673"/>
                        </Array>
                    </mxGeometry>
                </mxCell>
                <mxCell id="FSBIamKQacQ-9uDwm2ym-32" value="DATA PELANGGAN" style="edgeLabel;html=1;align=center;verticalAlign=middle;resizable=0;points=[];" parent="FSBIamKQacQ-9uDwm2ym-9" vertex="1" connectable="0">
                    <mxGeometry x="0.0187" y="1" relative="1" as="geometry">
                        <mxPoint as="offset"/>
                    </mxGeometry>
                </mxCell>
                <mxCell id="hHBTUFxTatIxDQuZNaUt-2" style="edgeStyle=none;html=1;exitX=0;exitY=1;exitDx=0;exitDy=0;entryX=0;entryY=0.5;entryDx=0;entryDy=0;endArrow=classic;endFill=1;" parent="GZYo5w1X7TxI_vXJRAY3-1" source="FSBIamKQacQ-9uDwm2ym-2" target="1TJ4WJsijHYQJ82XY1hQ-3" edge="1">
                    <mxGeometry relative="1" as="geometry">
                        <Array as="points">
                            <mxPoint x="70" y="845"/>
                        </Array>
                    </mxGeometry>
                </mxCell>
                <mxCell id="hHBTUFxTatIxDQuZNaUt-4" value="DATA KATEGORI TRANSAKSI" style="edgeLabel;html=1;align=center;verticalAlign=middle;resizable=0;points=[];" parent="hHBTUFxTatIxDQuZNaUt-2" vertex="1" connectable="0">
                    <mxGeometry x="0.4464" y="1" relative="1" as="geometry">
                        <mxPoint as="offset"/>
                    </mxGeometry>
                </mxCell>
                <mxCell id="FSBIamKQacQ-9uDwm2ym-2" value="ADMIN" style="html=1;dashed=0;whitespace=wrap;" parent="GZYo5w1X7TxI_vXJRAY3-1" vertex="1">
                    <mxGeometry x="70" y="455" width="100" height="50" as="geometry"/>
                </mxCell>
                <mxCell id="1TJ4WJsijHYQJ82XY1hQ-1" style="edgeStyle=none;html=1;exitX=1;exitY=0.5;exitDx=0;exitDy=0;entryX=0;entryY=0.75;entryDx=0;entryDy=0;" parent="GZYo5w1X7TxI_vXJRAY3-1" source="1TJ4WJsijHYQJ82XY1hQ-3" target="1TJ4WJsijHYQJ82XY1hQ-6" edge="1">
                    <mxGeometry relative="1" as="geometry"/>
                </mxCell>
                <mxCell id="1TJ4WJsijHYQJ82XY1hQ-2" value="DATA KATEGORI TRANSAKSI" style="edgeLabel;html=1;align=center;verticalAlign=middle;resizable=0;points=[];" parent="1TJ4WJsijHYQJ82XY1hQ-1" vertex="1" connectable="0">
                    <mxGeometry x="-0.2259" relative="1" as="geometry">
                        <mxPoint x="13" y="1" as="offset"/>
                    </mxGeometry>
                </mxCell>
                <mxCell id="hHBTUFxTatIxDQuZNaUt-1" style="edgeStyle=none;html=1;exitX=0;exitY=0;exitDx=0;exitDy=0;entryX=0.25;entryY=1;entryDx=0;entryDy=0;endArrow=classic;endFill=1;" parent="GZYo5w1X7TxI_vXJRAY3-1" source="1TJ4WJsijHYQJ82XY1hQ-3" target="FSBIamKQacQ-9uDwm2ym-2" edge="1">
                    <mxGeometry relative="1" as="geometry">
                        <Array as="points">
                            <mxPoint x="95" y="813"/>
                        </Array>
                    </mxGeometry>
                </mxCell>
                <mxCell id="hHBTUFxTatIxDQuZNaUt-3" value="INFO KATEGORI TRANSAKSI" style="edgeLabel;html=1;align=center;verticalAlign=middle;resizable=0;points=[];" parent="hHBTUFxTatIxDQuZNaUt-1" vertex="1" connectable="0">
                    <mxGeometry x="-0.2415" y="-1" relative="1" as="geometry">
                        <mxPoint x="27" as="offset"/>
                    </mxGeometry>
                </mxCell>
                <mxCell id="1TJ4WJsijHYQJ82XY1hQ-3" value="2.4&lt;br&gt;PENGOLAHAN&lt;br&gt;KATEGORI&lt;br&gt;TRANSAKSI" style="shape=ellipse;html=1;dashed=0;whitespace=wrap;aspect=fixed;perimeter=ellipsePerimeter;" parent="GZYo5w1X7TxI_vXJRAY3-1" vertex="1">
                    <mxGeometry x="380" y="800" width="90" height="90" as="geometry"/>
                </mxCell>
                <mxCell id="1TJ4WJsijHYQJ82XY1hQ-4" style="edgeStyle=none;html=1;exitX=0;exitY=0.25;exitDx=0;exitDy=0;entryX=0.987;entryY=0.321;entryDx=0;entryDy=0;entryPerimeter=0;" parent="GZYo5w1X7TxI_vXJRAY3-1" source="1TJ4WJsijHYQJ82XY1hQ-6" target="1TJ4WJsijHYQJ82XY1hQ-3" edge="1">
                    <mxGeometry relative="1" as="geometry"/>
                </mxCell>
                <mxCell id="1TJ4WJsijHYQJ82XY1hQ-5" value="DATA KATEGORI TRANSAKSI" style="edgeLabel;html=1;align=center;verticalAlign=middle;resizable=0;points=[];" parent="1TJ4WJsijHYQJ82XY1hQ-4" vertex="1" connectable="0">
                    <mxGeometry x="0.2046" y="1" relative="1" as="geometry">
                        <mxPoint x="17" as="offset"/>
                    </mxGeometry>
                </mxCell>
                <mxCell id="1TJ4WJsijHYQJ82XY1hQ-6" value="KATEGORI&lt;br&gt;TRANSAKSI" style="html=1;dashed=0;whitespace=wrap;shape=partialRectangle;right=0;left=0;" parent="GZYo5w1X7TxI_vXJRAY3-1" vertex="1">
                    <mxGeometry x="670" y="820" width="100" height="30" as="geometry"/>
                </mxCell>
            </root>
        </mxGraphModel>
    </diagram>
    <diagram id="zSl6FsmgyavH3ffhnik6" name="DAD 2 PROSES 3">
        <mxGraphModel dx="1922" dy="818" grid="1" gridSize="10" guides="1" tooltips="1" connect="1" arrows="1" fold="1" page="1" pageScale="1" pageWidth="850" pageHeight="1100" math="0" shadow="0">
            <root>
                <mxCell id="tJPHGZZjOlp_wrE5jOsC-0"/>
                <mxCell id="tJPHGZZjOlp_wrE5jOsC-1" parent="tJPHGZZjOlp_wrE5jOsC-0"/>
                <mxCell id="T_oLpemxW6QjLNJZyAPk-5" style="edgeStyle=none;html=1;exitX=0;exitY=0.5;exitDx=0;exitDy=0;entryX=1;entryY=0.7;entryDx=0;entryDy=0;entryPerimeter=0;" parent="tJPHGZZjOlp_wrE5jOsC-1" source="T_oLpemxW6QjLNJZyAPk-9" target="Hvj6-YbkGbmqZrzwMP6C-0" edge="1">
                    <mxGeometry relative="1" as="geometry">
                        <Array as="points">
                            <mxPoint x="170" y="415"/>
                        </Array>
                        <mxPoint x="150" y="420" as="targetPoint"/>
                    </mxGeometry>
                </mxCell>
                <mxCell id="T_oLpemxW6QjLNJZyAPk-6" value="INFO STATUS TRANSAKSI" style="edgeLabel;html=1;align=center;verticalAlign=middle;resizable=0;points=[];" parent="T_oLpemxW6QjLNJZyAPk-5" vertex="1" connectable="0">
                    <mxGeometry x="0.0645" y="1" relative="1" as="geometry">
                        <mxPoint as="offset"/>
                    </mxGeometry>
                </mxCell>
                <mxCell id="T_oLpemxW6QjLNJZyAPk-7" style="edgeStyle=none;html=1;entryX=0;entryY=0.75;entryDx=0;entryDy=0;" parent="tJPHGZZjOlp_wrE5jOsC-1" source="T_oLpemxW6QjLNJZyAPk-9" target="T_oLpemxW6QjLNJZyAPk-25" edge="1">
                    <mxGeometry relative="1" as="geometry"/>
                </mxCell>
                <mxCell id="T_oLpemxW6QjLNJZyAPk-8" value="DATA STATUS TRANSAKSI" style="edgeLabel;html=1;align=center;verticalAlign=middle;resizable=0;points=[];" parent="T_oLpemxW6QjLNJZyAPk-7" vertex="1" connectable="0">
                    <mxGeometry x="-0.4632" y="1" relative="1" as="geometry">
                        <mxPoint x="44" y="2" as="offset"/>
                    </mxGeometry>
                </mxCell>
                <mxCell id="T_oLpemxW6QjLNJZyAPk-9" value="3.1&lt;br&gt;PENGOLAHAN&lt;br&gt;STATUS&lt;br&gt;TRANSAKSI" style="shape=ellipse;html=1;dashed=0;whitespace=wrap;aspect=fixed;perimeter=ellipsePerimeter;" parent="tJPHGZZjOlp_wrE5jOsC-1" vertex="1">
                    <mxGeometry x="380" y="370" width="90" height="90" as="geometry"/>
                </mxCell>
                <mxCell id="T_oLpemxW6QjLNJZyAPk-10" style="edgeStyle=none;html=1;exitX=0;exitY=0.5;exitDx=0;exitDy=0;entryX=1.009;entryY=0.695;entryDx=0;entryDy=0;entryPerimeter=0;" parent="tJPHGZZjOlp_wrE5jOsC-1" source="T_oLpemxW6QjLNJZyAPk-14" target="T_oLpemxW6QjLNJZyAPk-42" edge="1">
                    <mxGeometry relative="1" as="geometry">
                        <Array as="points">
                            <mxPoint x="190" y="550"/>
                        </Array>
                        <mxPoint x="180" y="550" as="targetPoint"/>
                    </mxGeometry>
                </mxCell>
                <mxCell id="T_oLpemxW6QjLNJZyAPk-11" value="INFO TRANSAKSI" style="edgeLabel;html=1;align=center;verticalAlign=middle;resizable=0;points=[];" parent="T_oLpemxW6QjLNJZyAPk-10" vertex="1" connectable="0">
                    <mxGeometry x="-0.0567" y="4" relative="1" as="geometry">
                        <mxPoint as="offset"/>
                    </mxGeometry>
                </mxCell>
                <mxCell id="T_oLpemxW6QjLNJZyAPk-12" style="edgeStyle=none;html=1;entryX=0;entryY=0.75;entryDx=0;entryDy=0;exitX=1.019;exitY=0.603;exitDx=0;exitDy=0;exitPerimeter=0;" parent="tJPHGZZjOlp_wrE5jOsC-1" source="T_oLpemxW6QjLNJZyAPk-14" target="T_oLpemxW6QjLNJZyAPk-28" edge="1">
                    <mxGeometry relative="1" as="geometry"/>
                </mxCell>
                <mxCell id="T_oLpemxW6QjLNJZyAPk-13" value="DATA TRANSAKSI" style="edgeLabel;html=1;align=center;verticalAlign=middle;resizable=0;points=[];" parent="T_oLpemxW6QjLNJZyAPk-12" vertex="1" connectable="0">
                    <mxGeometry x="-0.1654" relative="1" as="geometry">
                        <mxPoint as="offset"/>
                    </mxGeometry>
                </mxCell>
                <mxCell id="Hvj6-YbkGbmqZrzwMP6C-1" style="edgeStyle=none;html=1;entryX=0.5;entryY=1;entryDx=0;entryDy=0;endArrow=classic;endFill=1;" parent="tJPHGZZjOlp_wrE5jOsC-1" source="T_oLpemxW6QjLNJZyAPk-14" target="T_oLpemxW6QjLNJZyAPk-9" edge="1">
                    <mxGeometry relative="1" as="geometry">
                        <Array as="points">
                            <mxPoint x="425" y="490"/>
                        </Array>
                    </mxGeometry>
                </mxCell>
                <mxCell id="Hvj6-YbkGbmqZrzwMP6C-2" value="DATA TRANSAKSI" style="edgeLabel;html=1;align=center;verticalAlign=middle;resizable=0;points=[];" parent="Hvj6-YbkGbmqZrzwMP6C-1" vertex="1" connectable="0">
                    <mxGeometry x="-0.0911" y="-1" relative="1" as="geometry">
                        <mxPoint as="offset"/>
                    </mxGeometry>
                </mxCell>
                <mxCell id="hW_7c7LAhlEphUwuGGsL-1" style="edgeStyle=none;html=1;endArrow=classic;endFill=1;exitX=0;exitY=1;exitDx=0;exitDy=0;entryX=0;entryY=0;entryDx=0;entryDy=0;" parent="tJPHGZZjOlp_wrE5jOsC-1" source="T_oLpemxW6QjLNJZyAPk-14" target="hW_7c7LAhlEphUwuGGsL-0" edge="1">
                    <mxGeometry relative="1" as="geometry"/>
                </mxCell>
                <mxCell id="hW_7c7LAhlEphUwuGGsL-2" value="DATA TRANSAKSI" style="edgeLabel;html=1;align=center;verticalAlign=middle;resizable=0;points=[];" parent="hW_7c7LAhlEphUwuGGsL-1" vertex="1" connectable="0">
                    <mxGeometry x="-0.1852" relative="1" as="geometry">
                        <mxPoint x="-35" as="offset"/>
                    </mxGeometry>
                </mxCell>
                <mxCell id="T_oLpemxW6QjLNJZyAPk-14" value="3.2&lt;br&gt;PENGOLAHAN&lt;br&gt;TRANSAKSI" style="shape=ellipse;html=1;dashed=0;whitespace=wrap;aspect=fixed;perimeter=ellipsePerimeter;" parent="tJPHGZZjOlp_wrE5jOsC-1" vertex="1">
                    <mxGeometry x="380" y="505" width="90" height="90" as="geometry"/>
                </mxCell>
                <mxCell id="T_oLpemxW6QjLNJZyAPk-23" style="edgeStyle=none;html=1;exitX=0;exitY=0.25;exitDx=0;exitDy=0;entryX=0.971;entryY=0.327;entryDx=0;entryDy=0;entryPerimeter=0;" parent="tJPHGZZjOlp_wrE5jOsC-1" source="T_oLpemxW6QjLNJZyAPk-25" target="T_oLpemxW6QjLNJZyAPk-9" edge="1">
                    <mxGeometry relative="1" as="geometry"/>
                </mxCell>
                <mxCell id="T_oLpemxW6QjLNJZyAPk-24" value="DATA STATUS TRANSAKSI" style="edgeLabel;html=1;align=center;verticalAlign=middle;resizable=0;points=[];" parent="T_oLpemxW6QjLNJZyAPk-23" vertex="1" connectable="0">
                    <mxGeometry x="0.4396" y="-2" relative="1" as="geometry">
                        <mxPoint x="43" as="offset"/>
                    </mxGeometry>
                </mxCell>
                <mxCell id="T_oLpemxW6QjLNJZyAPk-25" value="STATUS&lt;br&gt;TRANSAKSI" style="html=1;dashed=0;whitespace=wrap;shape=partialRectangle;right=0;left=0;" parent="tJPHGZZjOlp_wrE5jOsC-1" vertex="1">
                    <mxGeometry x="680" y="390" width="100" height="30" as="geometry"/>
                </mxCell>
                <mxCell id="T_oLpemxW6QjLNJZyAPk-26" style="edgeStyle=none;html=1;exitX=0;exitY=0.25;exitDx=0;exitDy=0;entryX=1;entryY=0.389;entryDx=0;entryDy=0;entryPerimeter=0;" parent="tJPHGZZjOlp_wrE5jOsC-1" source="T_oLpemxW6QjLNJZyAPk-28" target="T_oLpemxW6QjLNJZyAPk-14" edge="1">
                    <mxGeometry relative="1" as="geometry"/>
                </mxCell>
                <mxCell id="T_oLpemxW6QjLNJZyAPk-27" value="DATA TRANSAKSI" style="edgeLabel;html=1;align=center;verticalAlign=middle;resizable=0;points=[];" parent="T_oLpemxW6QjLNJZyAPk-26" vertex="1" connectable="0">
                    <mxGeometry x="0.2002" y="3" relative="1" as="geometry">
                        <mxPoint x="12" y="-4" as="offset"/>
                    </mxGeometry>
                </mxCell>
                <mxCell id="hW_7c7LAhlEphUwuGGsL-6" style="edgeStyle=none;html=1;exitX=0.75;exitY=1;exitDx=0;exitDy=0;endArrow=classic;endFill=1;entryX=1;entryY=1;entryDx=0;entryDy=0;" parent="tJPHGZZjOlp_wrE5jOsC-1" source="T_oLpemxW6QjLNJZyAPk-28" target="hW_7c7LAhlEphUwuGGsL-0" edge="1">
                    <mxGeometry relative="1" as="geometry">
                        <mxPoint x="460" y="760.072724313447" as="targetPoint"/>
                        <Array as="points">
                            <mxPoint x="715" y="717"/>
                        </Array>
                    </mxGeometry>
                </mxCell>
                <mxCell id="CYvlD-Hy3aOS6hR4w4MI-3" value="DATA PAYMENT" style="edgeLabel;html=1;align=center;verticalAlign=middle;resizable=0;points=[];" parent="hW_7c7LAhlEphUwuGGsL-6" vertex="1" connectable="0">
                    <mxGeometry x="0.7633" y="2" relative="1" as="geometry">
                        <mxPoint x="45" as="offset"/>
                    </mxGeometry>
                </mxCell>
                <mxCell id="T_oLpemxW6QjLNJZyAPk-28" value="TRANSAKSI" style="html=1;dashed=0;whitespace=wrap;shape=partialRectangle;right=0;left=0;" parent="tJPHGZZjOlp_wrE5jOsC-1" vertex="1">
                    <mxGeometry x="640" y="535" width="100" height="30" as="geometry"/>
                </mxCell>
                <mxCell id="T_oLpemxW6QjLNJZyAPk-34" style="edgeStyle=none;html=1;entryX=0.111;entryY=0.224;entryDx=0;entryDy=0;exitX=1.001;exitY=0.203;exitDx=0;exitDy=0;exitPerimeter=0;entryPerimeter=0;" parent="tJPHGZZjOlp_wrE5jOsC-1" source="Hvj6-YbkGbmqZrzwMP6C-0" target="T_oLpemxW6QjLNJZyAPk-9" edge="1">
                    <mxGeometry relative="1" as="geometry">
                        <Array as="points"/>
                        <mxPoint x="145" y="383" as="sourcePoint"/>
                    </mxGeometry>
                </mxCell>
                <mxCell id="T_oLpemxW6QjLNJZyAPk-35" value="DATA STATUS TRANSKSI" style="edgeLabel;html=1;align=center;verticalAlign=middle;resizable=0;points=[];" parent="T_oLpemxW6QjLNJZyAPk-34" vertex="1" connectable="0">
                    <mxGeometry x="-0.0572" relative="1" as="geometry">
                        <mxPoint x="16" as="offset"/>
                    </mxGeometry>
                </mxCell>
                <mxCell id="T_oLpemxW6QjLNJZyAPk-36" style="edgeStyle=none;html=1;exitX=1.013;exitY=0.071;exitDx=0;exitDy=0;entryX=0;entryY=0;entryDx=0;entryDy=0;exitPerimeter=0;" parent="tJPHGZZjOlp_wrE5jOsC-1" source="T_oLpemxW6QjLNJZyAPk-42" target="T_oLpemxW6QjLNJZyAPk-14" edge="1">
                    <mxGeometry relative="1" as="geometry">
                        <Array as="points">
                            <mxPoint x="170" y="518"/>
                        </Array>
                    </mxGeometry>
                </mxCell>
                <mxCell id="T_oLpemxW6QjLNJZyAPk-37" value="DATA TRANSAKSI" style="edgeLabel;html=1;align=center;verticalAlign=middle;resizable=0;points=[];" parent="T_oLpemxW6QjLNJZyAPk-36" vertex="1" connectable="0">
                    <mxGeometry x="-0.2384" y="-2" relative="1" as="geometry">
                        <mxPoint as="offset"/>
                    </mxGeometry>
                </mxCell>
                <mxCell id="hW_7c7LAhlEphUwuGGsL-3" style="edgeStyle=none;html=1;endArrow=classic;endFill=1;exitX=0.75;exitY=1;exitDx=0;exitDy=0;entryX=0;entryY=0.5;entryDx=0;entryDy=0;" parent="tJPHGZZjOlp_wrE5jOsC-1" source="T_oLpemxW6QjLNJZyAPk-42" target="hW_7c7LAhlEphUwuGGsL-0" edge="1">
                    <mxGeometry relative="1" as="geometry">
                        <Array as="points">
                            <mxPoint x="125" y="685"/>
                        </Array>
                    </mxGeometry>
                </mxCell>
                <mxCell id="CYvlD-Hy3aOS6hR4w4MI-0" value="DATA PAYMENT" style="edgeLabel;html=1;align=center;verticalAlign=middle;resizable=0;points=[];" parent="hW_7c7LAhlEphUwuGGsL-3" vertex="1" connectable="0">
                    <mxGeometry x="0.2999" relative="1" as="geometry">
                        <mxPoint as="offset"/>
                    </mxGeometry>
                </mxCell>
                <mxCell id="T_oLpemxW6QjLNJZyAPk-42" value="PELANGGAN" style="html=1;dashed=0;whitespace=wrap;" parent="tJPHGZZjOlp_wrE5jOsC-1" vertex="1">
                    <mxGeometry x="50" y="515" width="100" height="50" as="geometry"/>
                </mxCell>
                <mxCell id="Hvj6-YbkGbmqZrzwMP6C-0" value="ADMIN" style="html=1;dashed=0;whitespace=wrap;" parent="tJPHGZZjOlp_wrE5jOsC-1" vertex="1">
                    <mxGeometry x="40" y="380" width="100" height="50" as="geometry"/>
                </mxCell>
                <mxCell id="hW_7c7LAhlEphUwuGGsL-5" style="edgeStyle=none;html=1;exitX=1;exitY=0;exitDx=0;exitDy=0;entryX=0.25;entryY=1;entryDx=0;entryDy=0;endArrow=classic;endFill=1;" parent="tJPHGZZjOlp_wrE5jOsC-1" source="hW_7c7LAhlEphUwuGGsL-0" target="T_oLpemxW6QjLNJZyAPk-28" edge="1">
                    <mxGeometry relative="1" as="geometry">
                        <Array as="points">
                            <mxPoint x="665" y="653"/>
                        </Array>
                    </mxGeometry>
                </mxCell>
                <mxCell id="CYvlD-Hy3aOS6hR4w4MI-2" value="DATA PAYMENT" style="edgeLabel;html=1;align=center;verticalAlign=middle;resizable=0;points=[];" parent="hW_7c7LAhlEphUwuGGsL-5" vertex="1" connectable="0">
                    <mxGeometry x="-0.5904" y="-2" relative="1" as="geometry">
                        <mxPoint as="offset"/>
                    </mxGeometry>
                </mxCell>
                <mxCell id="CYvlD-Hy3aOS6hR4w4MI-4" style="edgeStyle=none;html=1;exitX=1;exitY=0;exitDx=0;exitDy=0;entryX=1;entryY=1;entryDx=0;entryDy=0;endArrow=classic;endFill=1;" parent="tJPHGZZjOlp_wrE5jOsC-1" source="hW_7c7LAhlEphUwuGGsL-0" target="T_oLpemxW6QjLNJZyAPk-14" edge="1">
                    <mxGeometry relative="1" as="geometry"/>
                </mxCell>
                <mxCell id="CYvlD-Hy3aOS6hR4w4MI-5" value="INFO PAYMENT" style="edgeLabel;html=1;align=center;verticalAlign=middle;resizable=0;points=[];" parent="CYvlD-Hy3aOS6hR4w4MI-4" vertex="1" connectable="0">
                    <mxGeometry x="0.379" y="-1" relative="1" as="geometry">
                        <mxPoint x="2" y="6" as="offset"/>
                    </mxGeometry>
                </mxCell>
                <mxCell id="hW_7c7LAhlEphUwuGGsL-0" value="3.3&lt;br&gt;PENGOLAHAN&lt;br&gt;TRANSAKSI" style="shape=ellipse;html=1;dashed=0;whitespace=wrap;aspect=fixed;perimeter=ellipsePerimeter;" parent="tJPHGZZjOlp_wrE5jOsC-1" vertex="1">
                    <mxGeometry x="380" y="640" width="90" height="90" as="geometry"/>
                </mxCell>
            </root>
        </mxGraphModel>
    </diagram>
    <diagram id="oW9Zju9HBztZaKqhbsYs" name="Page-8">
        <mxGraphModel dx="1036" dy="417" grid="1" gridSize="10" guides="1" tooltips="1" connect="1" arrows="1" fold="1" page="1" pageScale="1" pageWidth="850" pageHeight="1100" math="0" shadow="0">
            <root>
                <mxCell id="rL9qzj1wimT2NJp-TEiT-0"/>
                <mxCell id="rL9qzj1wimT2NJp-TEiT-1" parent="rL9qzj1wimT2NJp-TEiT-0"/>
            </root>
        </mxGraphModel>
    </diagram>
</mxfile>